<svg xmlns="http://www.w3.org/2000/svg" width="80" height="80"><path fill="gold" fill-opacity=".13" d="M24 0A24 24 0 0 0 0 24v32a24 24 0 0 0 24 24h32a24 24 0 0 0 24-24V24A24 24 0 0 0 56 0H24Z"/><defs><clipPath id="a"><path d="M16 20.8h48v38.4H16V20.8Z"/></clipPath></defs><g clip-path="url(#a)"><defs><clipPath id="b"><path d="M16 20.8h48v38.4H16V20.8Z"/></clipPath></defs><g clip-path="url(#b)"><path fill="gold" d="M62.59 27.9a27.14 27.14 0 0 0-8.73-1.34c-9.24 0-18.48 3.74-27.72 3.74-2.31 0-4.63-.23-6.95-.82-.26-.07-.52-.1-.77-.1-1.3 0-2.42.8-2.42 1.9v19.04c0 .76.54 1.48 1.41 1.77 2.91.98 5.82 1.35 8.73 1.35 9.24 0 18.48-3.74 27.72-3.74 2.31 0 4.63.23 6.95.82.26.07.52.1.77.1 1.3 0 2.42-.8 2.42-1.9V29.67c0-.76-.54-1.48-1.41-1.77ZM19.6 32.58c1.5.3 3.08.46 4.7.54-.44 1.76-2.38 3.1-4.7 3.1v-3.64Zm0 17.1v-2.86c2.58 0 4.66 1.63 4.78 3.68-1.7-.1-3.27-.38-4.78-.82ZM40 45.76c-3.31 0-6-2.58-6-5.76a5.88 5.88 0 0 1 6-5.76c3.31 0 6 2.58 6 5.76a5.88 5.88 0 0 1-6 5.76Zm20.4 1.67a31.8 31.8 0 0 0-4.07-.51c.44-1.56 2.06-2.75 4.07-2.96v3.47Zm0-14.17c-2.32-.23-4.11-1.78-4.19-3.7 1.47.14 2.86.38 4.19.77v2.93Z"/></g></g></svg>