<?xml version="1.0" encoding="utf-8" ?>
<svg xmlns="http://www.w3.org/2000/svg" xmlns:xlink="http://www.w3.org/1999/xlink" width="80" height="80" viewBox="0 0 80 80">
	<path transform="matrix(1 0 0 1 0 0)" d="M24 0C10.7452 0 0 10.7452 0 24L0 56C0 69.2548 10.7452 80 24 80L56 80C69.2548 80 80 69.2548 80 56L80 24C80 10.7452 69.2548 0 56 0L24 0Z" fill-rule="nonzero" fill="rgb(255, 215, 0)" fill-opacity="0.125"/>
	<defs>
		<clipPath id="clipPath7875636180">
			<path transform="matrix(1 0 0 1 16 20.8)" d="M0 0L48 0L48 38.4L0 38.4L0 0Z" fill-rule="nonzero"/>
		</clipPath>
	</defs>
	<g clip-path="url(#clipPath7875636180)">
		<defs>
			<clipPath id="clipPath6772286473">
				<path transform="matrix(1 0 0 1 16 20.8)" d="M0 0L48 0L48 38.4L0 38.4L0 0Z" fill-rule="nonzero"/>
			</clipPath>
		</defs>
		<g clip-path="url(#clipPath6772286473)">
			<path transform="matrix(1 0 0 1 16 26.56)" d="M46.587 1.3476C43.6777 0.3714 40.7663 1.14441e-07 37.8563 1.14441e-07C28.6185 -0.000599899 19.3815 3.7404 10.1438 3.7404C7.827 3.7404 5.51175 3.5052 3.195 2.9172C2.93475 2.8512 2.67375 2.82 2.41875 2.82C1.128 2.82 0 3.6192 0 4.7286L0 23.7642C0 24.522 0.54225 25.2402 1.413 25.5318C4.32225 26.5086 7.23375 26.88 10.1438 26.88C19.3815 26.88 28.6193 23.139 37.857 23.139C40.1738 23.139 42.489 23.3742 44.8058 23.9622C45.066 24.0282 45.327 24.0594 45.582 24.0594C46.8728 24.0594 48.0008 23.2602 48.0008 22.1508L48.0008 3.1158C48 2.3574 47.4578 1.6398 46.587 1.3476ZM3.6 6.0132C5.109 6.3156 6.684 6.4674 8.304 6.549C7.863 8.3124 5.925 9.6414 3.6 9.6414L3.6 6.0132ZM3.6 23.1132L3.6 20.2464C6.17775 20.2464 8.2635 21.8826 8.37825 23.9304C6.6885 23.8218 5.109 23.5518 3.6 23.1132ZM24 19.2C20.6857 19.2 18 16.6206 18 13.44C18 10.2588 20.6865 7.68 24 7.68C27.3135 7.68 30 10.2588 30 13.44C30 16.6218 27.3127 19.2 24 19.2ZM44.4 20.8668C43.086 20.6034 41.7217 20.4558 40.326 20.3604C40.7663 18.7956 42.3885 17.6076 44.4 17.4036L44.4 20.8668ZM44.4 6.7002C42.0833 6.4656 40.2855 4.9182 40.2143 3.0072C41.6798 3.1374 43.071 3.381 44.4 3.7668L44.4 6.7002Z" fill-rule="nonzero" fill="rgb(255, 215, 0)"/>
		</g>
	</g>
</svg>
