<?xml version="1.0" encoding="utf-8" ?>
<svg xmlns="http://www.w3.org/2000/svg" xmlns:xlink="http://www.w3.org/1999/xlink" width="80" height="80" viewBox="0 0 80 80">
	<path transform="matrix(1 0 0 1 0 0)" d="M24 0C10.7452 0 0 10.7452 0 24L0 56C0 69.2548 10.7452 80 24 80L56 80C69.2548 80 80 69.2548 80 56L80 24C80 10.7452 69.2548 0 56 0L24 0Z" fill-rule="nonzero" fill="rgb(255, 75, 43)" fill-opacity="0.125"/>
	<defs>
		<clipPath id="clipPath3846149552">
			<path transform="matrix(1 0 0 1 16 20.8)" d="M0 0L48 0L48 38.4L0 38.4L0 0Z" fill-rule="nonzero"/>
		</clipPath>
	</defs>
	<g clip-path="url(#clipPath3846149552)">
		<defs>
			<clipPath id="clipPath3861810609">
				<path transform="matrix(1 0 0 1 16 20.8)" d="M0 0L48 0L48 38.4L0 38.4L0 0Z" fill-rule="nonzero"/>
			</clipPath>
		</defs>
		<g clip-path="url(#clipPath3861810609)">
			<path transform="matrix(1 0 0 1 15.9999 24.64)" d="M15.5147 14.709C12.8237 15.336 11.0184 17.181 11.1999 19.155C12.0549 18.3918 13.3607 17.733 14.9424 17.2998L15.5147 14.709ZM7.18593 17.7L4.80618 6.9294C4.78443 6.8322 4.82718 6.7722 4.82418 6.7704C9.15618 4.8468 14.0582 3.8298 18.9999 3.8298C19.1207 3.8298 19.2422 3.84 19.3637 3.8412C20.4099 3.033 21.7434 2.4714 23.2329 2.2812C24.6497 2.1 26.0867 2.0082 27.5214 1.962C26.7722 1.125 25.6854 0.5082 24.3887 0.342C22.5954 0.1134 20.7932 0 18.9992 0C13.2497 0 7.57668 1.1652 2.49018 3.4236C0.67743 4.2288 -0.29382 5.9088 0.0789299 7.5948L2.45868 18.3654C3.52593 23.1966 12.6834 26.8902 17.7924 26.8902C18.0617 26.8902 18.2987 26.8626 18.5432 26.8422C17.5292 25.8174 16.3727 24.4134 15.5807 22.7874C12.0099 22.0086 7.62618 19.6902 7.18593 17.7ZM14.5022 9.4524C14.4474 9.2052 14.3349 8.9802 14.1969 8.7684C13.5782 9.303 12.6467 9.7134 11.5479 9.8676C10.4492 10.0224 9.39768 9.8916 8.58693 9.5574C8.54793 9.7938 8.53893 10.0362 8.59368 10.2834C8.88168 11.5854 10.4372 12.4548 12.0692 12.2256C13.7004 11.9964 14.7902 10.7544 14.5022 9.4524ZM45.5102 7.254C38.8367 4.2912 31.1529 3.2094 23.6117 4.173C21.5634 4.4346 19.9307 5.7486 19.5587 7.4346L17.1789 18.2052C16.0247 23.4282 24.3249 29.9814 29.0522 30.6462C33.7794 31.3116 44.3874 27.4188 45.5417 22.1958L47.9214 11.4252C48.2942 9.7386 47.3229 8.0586 45.5102 7.254ZM25.0172 13.062C25.3052 11.76 26.8607 10.8906 28.4927 11.1204C30.1247 11.3502 31.2137 12.5916 30.9264 13.8936C30.8717 14.1408 30.7592 14.3658 30.6212 14.5776C30.0024 14.043 29.0709 13.6326 27.9722 13.4784C26.8734 13.3236 25.8219 13.4544 25.0112 13.7886C24.9714 13.5516 24.9624 13.3092 25.0172 13.062ZM30.3024 24.9876C26.1264 24.4002 23.2884 21.4314 23.6244 18.2136C25.1694 19.746 27.8402 20.9838 31.0862 21.4404C34.3322 21.897 37.3727 21.4626 39.4809 20.4444C38.4174 23.5608 34.4777 25.575 30.3024 24.9876ZM40.0749 15.9072C39.4562 15.3726 38.5239 14.9622 37.4252 14.808C36.3264 14.6532 35.2749 14.784 34.4642 15.1182C34.4252 14.8818 34.4162 14.6394 34.4709 14.3922C34.7589 13.0902 36.3144 12.2208 37.9464 12.45C39.5777 12.6798 40.6674 13.9212 40.3802 15.2232C40.3254 15.471 40.2129 15.696 40.0749 15.9072Z" fill-rule="nonzero" fill="rgb(255, 75, 43)"/>
		</g>
	</g>
</svg>
