<svg xmlns="http://www.w3.org/2000/svg" width="80" height="80"><path fill="#FF4B2B" fill-opacity=".13" d="M24 0A24 24 0 0 0 0 24v32a24 24 0 0 0 24 24h32a24 24 0 0 0 24-24V24A24 24 0 0 0 56 0H24Z"/><defs><clipPath id="a"><path d="M16 20.8h48v38.4H16V20.8Z"/></clipPath></defs><g clip-path="url(#a)"><defs><clipPath id="b"><path d="M16 20.8h48v38.4H16V20.8Z"/></clipPath></defs><g clip-path="url(#b)"><path fill="#FF4B2B" d="M31.51 39.35c-2.69.63-4.5 2.47-4.31 4.45a9.45 9.45 0 0 1 3.74-1.86l.57-2.6Zm-8.32 2.99L20.8 31.57c-.03-.1.02-.16.01-.16A35.18 35.18 0 0 1 35 28.47l.36.01a7.98 7.98 0 0 1 3.87-1.56c1.42-.18 2.86-.27 4.3-.32a5.05 5.05 0 0 0-3.14-1.62c-1.8-.23-3.6-.34-5.4-.34a40.83 40.83 0 0 0-16.5 3.42c-1.81.8-2.78 2.49-2.41 4.17l2.38 10.78c1.07 4.83 10.22 8.52 15.33 8.52.27 0 .5-.03.75-.05a15.8 15.8 0 0 1-2.96-4.05c-3.57-.78-7.95-3.1-8.4-5.09Zm7.31-8.25a2.09 2.09 0 0 0-.3-.68 5.2 5.2 0 0 1-2.65 1.1 5.8 5.8 0 0 1-2.96-.31 1.9 1.9 0 0 0 0 .72c.3 1.3 1.85 2.17 3.48 1.95 1.63-.23 2.72-1.48 2.43-2.78Zm31.01-2.2a41.4 41.4 0 0 0-21.9-3.08c-2.05.26-3.68 1.58-4.05 3.26l-2.38 10.78c-1.16 5.22 7.14 11.77 11.87 12.44 4.73.66 15.34-3.23 16.5-8.45l2.37-10.77c.37-1.7-.6-3.37-2.41-4.18Zm-20.5 5.81c.3-1.3 1.85-2.17 3.48-1.94 1.63.23 2.72 1.47 2.44 2.77-.06.25-.17.48-.3.69a5.2 5.2 0 0 0-2.66-1.1 5.8 5.8 0 0 0-2.96.3 1.88 1.88 0 0 1 0-.72Zm5.3 11.93c-4.18-.59-7.02-3.56-6.69-6.78 1.55 1.54 4.22 2.77 7.47 3.23 3.24.46 6.28.02 8.4-1-1.07 3.12-5.01 5.14-9.19 4.55Zm9.76-9.08a5.2 5.2 0 0 0-2.64-1.1 5.8 5.8 0 0 0-2.97.3 1.9 1.9 0 0 1 .01-.72c.29-1.3 1.84-2.17 3.48-1.94 1.63.23 2.72 1.47 2.43 2.77-.05.25-.17.48-.3.69Z"/></g></g></svg>