<?xml version="1.0" encoding="utf-8" ?>
<svg xmlns="http://www.w3.org/2000/svg" xmlns:xlink="http://www.w3.org/1999/xlink" width="80" height="80" viewBox="0 0 80 80">
	<path transform="matrix(1 0 0 1 0 0)" d="M24 0C10.7452 0 0 10.7452 0 24L0 56C0 69.2548 10.7452 80 24 80L56 80C69.2548 80 80 69.2548 80 56L80 24C80 10.7452 69.2548 0 56 0L24 0Z" fill-rule="nonzero" fill="rgb(0, 242, 254)" fill-opacity="0.125"/>
	<defs>
		<clipPath id="clipPath4242680343">
			<path transform="matrix(1 0 0 1 16 20.8)" d="M0 0L48 0L48 38.4L0 38.4L0 0Z" fill-rule="nonzero"/>
		</clipPath>
	</defs>
	<g clip-path="url(#clipPath4242680343)">
		<defs>
			<clipPath id="clipPath9658606187">
				<path transform="matrix(1 0 0 1 16 20.8)" d="M0 0L48 0L48 38.4L0 38.4L0 0Z" fill-rule="nonzero"/>
			</clipPath>
		</defs>
		<g clip-path="url(#clipPath9658606187)">
			<path transform="matrix(1 0 0 1 16 24.64)" d="M2.4 13.44L4.8 13.44L4.8 24.96L2.4 24.96C1.73693 24.9606 1.17096 24.7734 0.702101 24.3983C0.233239 24.0232 -0.000794168 23.5705 2.02463e-06 23.04L2.02463e-06 15.36C-0.000793935 14.8295 0.233239 14.3768 0.702102 14.0017C1.17096 13.6266 1.73693 13.4394 2.4 13.44ZM40.8 10.56L40.8 26.88C40.7987 27.94 40.3296 28.8447 39.3927 29.5942C38.4559 30.3437 37.3249 30.719 36 30.72L12 30.72C10.6751 30.719 9.54415 30.3437 8.60728 29.5942C7.6704 28.8447 7.20131 27.94 7.2 26.88L7.2 10.56C7.19946 9.23434 7.78506 8.10281 8.95679 7.16543C10.1285 6.22805 11.5429 5.75957 13.2 5.76L21.6 5.76L21.6 1.92C21.6 1.38981 21.8343 0.937258 22.3029 0.562355C22.7716 0.187452 23.3373 0 24 0C24.6627 0 25.2284 0.187452 25.6971 0.562355C26.1657 0.937258 26.4 1.38981 26.4 1.92L26.4 5.76L34.8 5.76C36.4571 5.75957 37.8715 6.22805 39.0432 7.16543C40.2149 8.10282 40.8005 9.23434 40.8 10.56ZM19.8 15.36C19.8 14.6973 19.5071 14.1316 18.9213 13.6629C18.3355 13.1943 17.6284 12.96 16.8 12.96C15.9716 12.96 15.2645 13.1943 14.6787 13.6629C14.0929 14.1316 13.8 14.6973 13.8 15.36C13.8 16.0227 14.0929 16.5884 14.6787 17.0571C15.2645 17.5257 15.9716 17.76 16.8 17.76C17.6285 17.76 18.3356 17.5258 18.9214 17.0571C19.5072 16.5885 19.8001 16.0228 19.8 15.36ZM19.2 23.04L14.4 23.04L14.4 24.96L19.2 24.96L19.2 23.04ZM26.4 23.04L21.6 23.04L21.6 24.96L26.4 24.96L26.4 23.04ZM34.2 15.36C34.2 14.6973 33.9071 14.1316 33.3213 13.6629C32.7355 13.1943 32.0284 12.96 31.2 12.96C30.3716 12.96 29.6645 13.1943 29.0787 13.6629C28.4929 14.1316 28.2 14.6973 28.2 15.36C28.2 16.0227 28.4929 16.5884 29.0787 17.0571C29.6645 17.5257 30.3716 17.76 31.2 17.76C32.0285 17.7601 32.7356 17.5258 33.3214 17.0571C33.9072 16.5885 34.2001 16.0228 34.2 15.36ZM33.6 23.04L28.8 23.04L28.8 24.96L33.6 24.96L33.6 23.04ZM48 15.36L48 23.04C48.0008 23.5705 47.7668 24.0232 47.2979 24.3983C46.829 24.7734 46.2631 24.9606 45.6 24.96L43.2 24.96L43.2 13.44L45.6 13.44C46.2631 13.4394 46.829 13.6266 47.2979 14.0017C47.7668 14.3768 48.0008 14.8295 48 15.36Z" fill-rule="nonzero" fill="rgb(0, 242, 254)"/>
		</g>
	</g>
</svg>
