<svg xmlns="http://www.w3.org/2000/svg" width="80" height="80"><path fill="#00F2FE" fill-opacity=".13" d="M24 0A24 24 0 0 0 0 24v32a24 24 0 0 0 24 24h32a24 24 0 0 0 24-24V24A24 24 0 0 0 56 0H24Z"/><defs><clipPath id="a"><path d="M16 20.8h48v38.4H16V20.8Z"/></clipPath></defs><g clip-path="url(#a)"><defs><clipPath id="b"><path d="M16 20.8h48v38.4H16V20.8Z"/></clipPath></defs><g clip-path="url(#b)"><path fill="#00F2FE" d="M18.4 38.08h2.4V49.6h-2.4c-.66 0-1.23-.19-1.7-.56-.47-.38-.7-.83-.7-1.36V40c0-.53.23-.98.7-1.36a2.63 2.63 0 0 1 1.7-.56Zm38.4-2.88v16.32c0 1.06-.47 1.96-1.4 2.71a5.27 5.27 0 0 1-3.4 1.13H28a5.27 5.27 0 0 1-3.4-1.13 3.38 3.38 0 0 1-1.4-2.71V35.2c0-1.33.59-2.46 1.76-3.4a6.58 6.58 0 0 1 4.24-1.4h8.4v-3.84c0-.53.23-.98.7-1.36a2.63 2.63 0 0 1 1.7-.56c.66 0 1.23.19 1.7.56.47.38.7.83.7 1.36v3.84h8.4c1.66 0 3.07.47 4.24 1.4a4.22 4.22 0 0 1 1.76 3.4Zm-21 4.8c0-.66-.3-1.23-.88-1.7-.58-.47-1.3-.7-2.12-.7-.83 0-1.54.23-2.12.7a2.1 2.1 0 0 0-.88 1.7c0 .66.3 1.23.88 1.7.58.47 1.3.7 2.12.7.83 0 1.54-.23 2.12-.7a2.1 2.1 0 0 0 .88-1.7Zm-.6 7.68h-4.8v1.92h4.8v-1.92Zm7.2 0h-4.8v1.92h4.8v-1.92ZM50.2 40c0-.66-.3-1.23-.88-1.7-.58-.47-1.3-.7-2.12-.7-.83 0-1.54.23-2.12.7a2.1 2.1 0 0 0-.88 1.7c0 .66.3 1.23.88 1.7.58.47 1.3.7 2.12.7.83 0 1.54-.23 2.12-.7a2.1 2.1 0 0 0 .88-1.7Zm-.6 7.68h-4.8v1.92h4.8v-1.92ZM64 40v7.68c0 .53-.23.98-.7 1.36-.47.37-1.04.56-1.7.56h-2.4V38.08h2.4c.66 0 1.23.19 1.7.56.47.38.7.83.7 1.36Z"/></g></g></svg>