<svg xmlns="http://www.w3.org/2000/svg" width="80" height="80"><path fill="#7BC043" fill-opacity=".13" d="M24 0A24 24 0 0 0 0 24v32a24 24 0 0 0 24 24h32a24 24 0 0 0 24-24V24A24 24 0 0 0 56 0H24Z"/><defs><clipPath id="a"><path d="M16 16h48v48H16V16Z"/></clipPath></defs><g clip-path="url(#a)"><defs><clipPath id="b"><path d="M16 16h48v48H16V16Z"/></clipPath></defs><g clip-path="url(#b)"><path fill="#7BC043" d="M21.4 18.82c.84 2.67.91 5.38 1.08 7.93.2 3.25.57 6.2 2.65 8.74.17.22.84.62 1.81.88.98.26 2.24.42 3.61.42a15.4 15.4 0 0 0 7.2-1.76c-6.84-2.57-11.5-6.81-12.66-12.29 3.55 4.5 6.66 7.98 13.36 9.98.14-1.19.4-2.3.58-3.3.3-1.68.34-2.9-.43-3.8-1.33-1.54-4.68-2.78-8.43-3.89-2.95-.88-6.1-1.72-8.77-2.9Zm29.23 9.96c-3.21 1.42-6.96 3.46-10.5 4.18-.06.59-.1 1.17-.07 1.73 4.07-.69 8.05-2.95 11.26-4.36 1.4-.5 4.03-1.83 5.35-.94 1.32 1.1.9 3.27.6 4.54-.36 1.54-.97 3.3-1.62 4.97.43.58.8 1.33 1.03 1.93a47.45 47.45 0 0 0 2.23-6.51c.45-2.38.78-4.84-1.28-6.32-2.2-1.33-5.12-.04-7 .78ZM48.85 40.1c-3.25 2.52-5.48 5.16-8.4 6.85-2.92 1.68-6.53 2.25-12.07.6-3.3-.99-5.3-.65-6.36.14-1.06.78-1.44 2.17-1.2 3.92.5 3.5 3.74 7.86 7.71 8.62 6.4 1.21 11.8 1.28 16.12.02a15.78 15.78 0 0 0 9.88-8.05c1.44-2.68 1.73-7.41.69-10.46-1.08-3.27-3.75-3.58-6.37-1.64Z"/></g></g></svg>