<?xml version="1.0" encoding="utf-8" ?>
<svg xmlns="http://www.w3.org/2000/svg" xmlns:xlink="http://www.w3.org/1999/xlink" width="80" height="80" viewBox="0 0 80 80">
	<path transform="matrix(1 0 0 1 0 0)" d="M24 0C10.7452 0 0 10.7452 0 24L0 56C0 69.2548 10.7452 80 24 80L56 80C69.2548 80 80 69.2548 80 56L80 24C80 10.7452 69.2548 0 56 0L24 0Z" fill-rule="nonzero" fill="rgb(123, 192, 67)" fill-opacity="0.125"/>
	<defs>
		<clipPath id="clipPath8562813642">
			<path transform="matrix(1 0 0 1 16 16)" d="M0 0L48 0L48 48L0 48L0 0Z" fill-rule="nonzero"/>
		</clipPath>
	</defs>
	<g clip-path="url(#clipPath8562813642)">
		<defs>
			<clipPath id="clipPath6348889629">
				<path transform="matrix(1 0 0 1 16 16)" d="M0 0L48 0L48 48L0 48L0 0Z" fill-rule="nonzero"/>
			</clipPath>
		</defs>
		<g clip-path="url(#clipPath6348889629)">
			<path transform="matrix(1 0 0 1 20.7535 18.8228)" d="M0.650253 0C1.49119 2.66719 1.55775 5.38125 1.72275 7.93031C1.93369 11.1741 2.29744 14.1178 4.37775 16.6678C4.5465 16.8834 5.21213 17.2866 6.18713 17.5491C7.16213 17.8116 8.42775 17.9709 9.7965 17.9709C12.159 17.9522 14.8309 17.4272 17.0059 16.2084C10.1528 13.6397 5.49338 9.39281 4.34025 3.92156C7.884 8.40844 10.9965 11.8959 17.6996 13.8928C17.8403 12.7116 18.1028 11.6053 18.2809 10.6022C18.5809 8.91469 18.6184 7.69594 17.8496 6.79594C16.5184 5.25844 13.1621 4.02188 9.4215 2.90813C6.46838 2.03156 3.309 1.18406 0.650253 0ZM29.8777 9.95531C26.6621 11.3803 22.9215 13.4147 19.3778 14.1366C19.3121 14.7272 19.2746 15.3084 19.3028 15.8709C23.3809 15.1772 27.3559 12.9178 30.5621 11.5022C31.959 11.0053 34.5934 9.67406 35.9153 10.5647C37.2371 11.6616 36.8153 13.8366 36.5153 15.1116C36.159 16.6491 35.5496 18.4116 34.8934 20.0803C35.3246 20.6522 35.6903 21.4116 35.9246 22.0116C36.7871 19.8928 37.6684 17.5491 38.1559 15.4959C38.6059 13.1147 38.934 10.6584 36.8809 9.17719C34.6684 7.84594 31.7527 9.13969 29.8777 9.95531ZM28.0965 21.2897C24.8434 23.8022 22.6215 26.4459 19.6965 28.1334C16.7809 29.8209 13.1715 30.3834 7.63088 28.7334C4.3215 27.7491 2.32744 28.0866 1.26619 28.8741C0.205877 29.6616 -0.174748 31.0491 0.0727522 32.7928C0.56869 36.2897 3.80588 40.6584 7.78088 41.4178C14.1746 42.6272 19.5746 42.7022 23.8965 41.4366C28.2184 40.1709 31.4809 37.6209 33.7777 33.3834C35.2215 30.7116 35.5027 25.9772 34.4621 22.9303C33.384 19.6584 30.7121 19.3491 28.0965 21.2897Z" fill-rule="nonzero" fill="rgb(123, 192, 67)"/>
		</g>
	</g>
</svg>
