<svg xmlns="http://www.w3.org/2000/svg" width="80" height="80"><path fill="#4FACFE" fill-opacity=".13" d="M24 0A24 24 0 0 0 0 24v32a24 24 0 0 0 24 24h32a24 24 0 0 0 24-24V24A24 24 0 0 0 56 0H24Z"/><defs><clipPath id="a"><path d="M16 18.67h48v42.66H16V18.67Z"/></clipPath></defs><g clip-path="url(#a)"><defs><clipPath id="b"><path d="M16 18.67h48v42.66H16V18.67Z"/></clipPath></defs><g clip-path="url(#b)"><path fill="#4FACFE" d="m63.56 38.54-4.9-3.84V24.6c0-.33-.12-.61-.38-.85a1.37 1.37 0 0 0-.95-.34H52c-.37 0-.68.11-.94.34-.26.24-.4.52-.4.84v3.83l-8.43-6.62a4.12 4.12 0 0 0-2.23-.76c-.71 0-1.7.34-2.23.76L16.44 38.54c-.13.12-.24.25-.31.4-.08.16-.12.32-.13.48a1.34 1.34 0 0 0 .34.8l1.79 1.76a1.79 1.79 0 0 0 1 .39 1.99 1.99 0 0 0 .89-.3l1.32-1.04v15.56c0 .66.26 1.22.78 1.68.52.46 1.15.7 1.89.7H56c.74 0 1.36-.24 1.89-.7.52-.46.78-1.02.78-1.68V41.03l1.32 1.04a1.9 1.9 0 0 0 .9.3 1.9 1.9 0 0 0 .98-.4l1.79-1.76a1.55 1.55 0 0 0 .34-.79 1.54 1.54 0 0 0-.44-.88ZM40 34.07c1.47 0 2.73.47 3.77 1.4a4.33 4.33 0 0 1 1.56 3.34c0 1.31-.52 2.43-1.56 3.36A5.48 5.48 0 0 1 40 43.56a5.48 5.48 0 0 1-3.77-1.4 4.33 4.33 0 0 1-1.56-3.35c0-1.3.52-2.42 1.56-3.35A5.48 5.48 0 0 1 40 34.07Zm9.33 20.15H30.67c-.37 0-.69-.11-.95-.34-.26-.24-.39-.52-.39-.84A6.5 6.5 0 0 1 31.68 48a8.22 8.22 0 0 1 5.65-2.08h5.34c2.2 0 4.1.69 5.65 2.08a6.5 6.5 0 0 1 2.35 5.03c0 .32-.13.6-.4.84-.25.23-.57.34-.94.34Z"/></g></g></svg>