<?xml version="1.0" encoding="utf-8" ?>
<svg xmlns="http://www.w3.org/2000/svg" xmlns:xlink="http://www.w3.org/1999/xlink" width="80" height="80" viewBox="0 0 80 80">
	<path transform="matrix(1 0 0 1 0 0)" d="M24 0C10.7452 0 0 10.7452 0 24L0 56C0 69.2548 10.7452 80 24 80L56 80C69.2548 80 80 69.2548 80 56L80 24C80 10.7452 69.2548 0 56 0L24 0Z" fill-rule="nonzero" fill="rgb(79, 172, 254)" fill-opacity="0.125"/>
	<defs>
		<clipPath id="clipPath7577041148">
			<path transform="matrix(1 0 0 1 16 18.6667)" d="M0 0L48 0L48 42.6667L0 42.6667L0 0Z" fill-rule="nonzero"/>
		</clipPath>
	</defs>
	<g clip-path="url(#clipPath7577041148)">
		<defs>
			<clipPath id="clipPath0187483803">
				<path transform="matrix(1 0 0 1 16 18.6667)" d="M0 0L48 0L48 42.6667L0 42.6667L0 0Z" fill-rule="nonzero"/>
			</clipPath>
		</defs>
		<g clip-path="url(#clipPath0187483803)">
			<path transform="matrix(1 0 0 1 16 21.037)" d="M47.5575 17.5015L42.6667 13.6622L42.6667 3.55556C42.6667 3.22828 42.5365 2.94892 42.2761 2.7175C42.0158 2.48608 41.7015 2.37037 41.3333 2.37037L36 2.37037C35.6318 2.37037 35.3175 2.48608 35.0572 2.7175C34.7968 2.94892 34.6667 3.22828 34.6667 3.55556L34.6667 7.38296L26.2317 0.762963C25.7083 0.341482 24.7108 0 24 0C23.2892 0 22.295 0.341482 21.7717 0.762963L0.438334 17.5037C0.30691 17.6217 0.203432 17.7567 0.127902 17.9086C0.0523707 18.0605 0.00973688 18.2193 0 18.3852C0.00851533 18.53 0.041881 18.6702 0.100097 18.8057C0.158313 18.9412 0.238559 19.0655 0.340833 19.1785L2.125 20.9407C2.26403 21.0516 2.41899 21.1406 2.58987 21.2077C2.76076 21.2748 2.93913 21.3167 3.125 21.3333C3.28614 21.319 3.44229 21.286 3.59345 21.2344C3.74461 21.1827 3.88541 21.1142 4.01583 21.0289L5.34083 19.9919L5.34083 35.5556C5.34083 36.2101 5.60118 36.7688 6.12188 37.2317C6.64258 37.6945 7.27112 37.9259 8.0075 37.9259L40 37.9259C40.7364 37.9259 41.3649 37.6945 41.8856 37.2317C42.4063 36.7688 42.6667 36.2101 42.6667 35.5556L42.6667 19.9911L43.9925 21.0281C44.1235 21.1134 44.2648 21.1819 44.4163 21.2336C44.5678 21.2854 44.7243 21.3186 44.8858 21.3333C45.07 21.3162 45.2467 21.274 45.4157 21.2068C45.5848 21.1396 45.7379 21.0507 45.875 20.94L47.6592 19.1763C47.7549 19.0603 47.8317 18.9351 47.8895 18.8008C47.9474 18.6664 47.9842 18.5276 48 18.3844C47.9809 18.2201 47.9335 18.0625 47.8579 17.9116C47.7822 17.7607 47.6821 17.624 47.5575 17.5015ZM24 13.037C25.4728 13.037 26.7298 13.4999 27.7712 14.4256C28.8126 15.3513 29.3333 16.4687 29.3333 17.7778C29.3333 19.0869 28.8126 20.2043 27.7712 21.13C26.7298 22.0557 25.4728 22.5185 24 22.5185C22.5272 22.5185 21.2702 22.0557 20.2288 21.13C19.1874 20.2043 18.6667 19.0869 18.6667 17.7778C18.6667 16.4687 19.1874 15.3513 20.2288 14.4256C21.2702 13.4999 22.5272 13.037 24 13.037ZM33.3333 33.1852L14.6667 33.1852C14.2985 33.1852 13.9842 33.0695 13.7239 32.8381C13.4635 32.6066 13.3333 32.3273 13.3333 32C13.3333 30.0363 14.1144 28.3602 15.6765 26.9717C17.2386 25.5832 19.1242 24.8889 21.3333 24.8889L26.6667 24.8889C28.8758 24.8889 30.7614 25.5832 32.3235 26.9717C33.8856 28.3602 34.6667 30.0363 34.6667 32C34.6667 32.3273 34.5365 32.6066 34.2761 32.8381C34.0158 33.0695 33.7015 33.1852 33.3333 33.1852Z" fill-rule="nonzero" fill="rgb(79, 172, 254)"/>
		</g>
	</g>
</svg>
