<?xml version="1.0" encoding="utf-8" ?>
<svg xmlns="http://www.w3.org/2000/svg" xmlns:xlink="http://www.w3.org/1999/xlink" width="22.0703" height="22.0709" viewBox="0 0 22.0703 22.0709">
	<path transform="matrix(0.707107 0.707107 -0.707107 0.707107 20.8432 -10.6549)" d="M1.52344 31L1.52344 13.5449L8.40234 13.5449Q10.3828 13.5449 11.7832 14.248Q13.1836 14.9512 13.9219 16.2344Q14.6602 17.5117 14.6602 19.2461Q14.6602 20.9863 13.9102 22.2402Q13.1602 23.4883 11.7363 24.1562Q10.3184 24.8184 8.30859 24.8184L3.70312 24.8184L3.70312 21.8418L7.71094 21.8418Q8.77148 21.8418 9.46875 21.5547Q10.166 21.2676 10.5117 20.6875Q10.8633 20.1074 10.8633 19.2461Q10.8633 18.3789 10.5117 17.7812Q10.166 17.1836 9.46289 16.8789Q8.76562 16.5684 7.69922 16.5684L5.20898 16.5684L5.20898 31L1.52344 31ZM10.9453 23.0547L15.2812 31L11.209 31L6.96094 23.0547L10.9453 23.0547Z" fill-rule="nonzero" fill="rgb(255, 217, 61)"/>
</svg>
