<svg xmlns="http://www.w3.org/2000/svg" width="200" height="204.6"><defs><filter id="a" color-interpolation-filters="sRGB" filterUnits="userSpaceOnUse"><feComponentTransfer in="SourceAlpha" result="componentTransfer3116712624"><feFuncR slope="0" type="linear"/><feFuncG slope="0" type="linear"/><feFuncB slope="0" type="linear"/><feFuncA slope="10000" type="linear"/></feComponentTransfer><feComponentTransfer in="componentTransfer3116712624" result="componentTransfer3505167662"><feFuncA slope=".1" type="linear"/></feComponentTransfer><feMorphology in="componentTransfer3505167662" radius="4" result="morphology1498374949"/><feOffset dy="4" in="morphology1498374949" result="offset1613611112"/><feGaussianBlur in="offset1613611112" result="gaussianBlur2034180906" stdDeviation="3"/><feComponentTransfer in="SourceAlpha" result="componentTransfer9616628254"><feFuncR slope="0" type="linear"/><feFuncG slope="0" type="linear"/><feFuncB slope="0" type="linear"/><feFuncA slope="10000" type="linear"/></feComponentTransfer><feComponentTransfer in="componentTransfer9616628254" result="componentTransfer6635942967"><feFuncA slope=".1" type="linear"/></feComponentTransfer><feMorphology in="componentTransfer6635942967" radius="3" result="morphology6353413777"/><feOffset dy="10" in="morphology6353413777" result="offset6938765656"/><feGaussianBlur in="offset6938765656" result="gaussianBlur7016421491" stdDeviation="7.5"/><feMerge><feMergeNode in="gaussianBlur2034180906"/><feMergeNode in="gaussianBlur7016421491"/><feMergeNode in="SourceGraphic"/></feMerge></filter></defs><g filter="url(#a)"><path fill="none" d="M64 44.6a24 24 0 0 0-24 24v72a24 24 0 0 0 24 24h72a24 24 0 0 0 24-24v-72a24 24 0 0 0-24-24H64Z"/><defs><linearGradient id="b" x1="0" x2="1" y1=".5" y2=".5" gradientTransform="rotate(45 60 60) scale(120)" gradientUnits="userSpaceOnUse"><stop offset="0" stop-color="#FF6B6B"/><stop offset="1" stop-color="#FFF22E"/></linearGradient></defs><path fill="url(#b)" d="M24 0A24 24 0 0 0 0 24v72a24 24 0 0 0 24 24h72a24 24 0 0 0 24-24V24A24 24 0 0 0 96 0H24Z" transform="translate(40 44.6)"/><defs><clipPath id="c"><path d="M64 44.6a24 24 0 0 0-24 24v72a24 24 0 0 0 24 24h72a24 24 0 0 0 24-24v-72a24 24 0 0 0-24-24H64Z"/></clipPath></defs><g clip-path="url(#c)"><path fill="#FFF" d="M84.84 121.6 74.55 86.69h10.58l4.76 21.48h.27l5.66-21.48h8.32l5.66 21.55h.27l4.77-21.55h10.57l-10.28 34.9h-9.08l-5.92-19.5h-.29l-5.93 19.5h-9.07Z"/></g></g><defs><filter id="d" color-interpolation-filters="sRGB" filterUnits="userSpaceOnUse"><feComponentTransfer in="SourceAlpha" result="componentTransfer1370394242"><feFuncR slope="0" type="linear"/><feFuncG slope="0" type="linear"/><feFuncB slope="0" type="linear"/><feFuncA slope="10000" type="linear"/></feComponentTransfer><feComponentTransfer in="componentTransfer1370394242" result="componentTransfer3328430909"><feFuncA slope=".1" type="linear"/></feComponentTransfer><feMorphology in="componentTransfer3328430909" radius="2" result="morphology5342568052"/><feOffset dy="2" in="morphology5342568052" result="offset7406030209"/><feGaussianBlur in="offset7406030209" result="gaussianBlur4773433414" stdDeviation="2"/><feComponentTransfer in="SourceAlpha" result="componentTransfer3300745548"><feFuncR slope="0" type="linear"/><feFuncG slope="0" type="linear"/><feFuncB slope="0" type="linear"/><feFuncA slope="10000" type="linear"/></feComponentTransfer><feComponentTransfer in="componentTransfer3300745548" result="componentTransfer6847936889"><feFuncA slope=".1" type="linear"/></feComponentTransfer><feMorphology in="componentTransfer6847936889" radius="1" result="morphology8552927639"/><feOffset dy="4" in="morphology8552927639" result="offset9475665565"/><feGaussianBlur in="offset9475665565" result="gaussianBlur7795377216" stdDeviation="3"/><feMerge><feMergeNode in="gaussianBlur4773433414"/><feMergeNode in="gaussianBlur7795377216"/><feMergeNode in="SourceGraphic"/></feMerge></filter></defs><g filter="url(#d)"><path fill="#FF6B6B" d="M24.13 7.21a8 8 0 0 0-5.66 9.8l4.15 15.45a8 8 0 0 0 9.8 5.66l15.45-4.14a8 8 0 0 0 5.66-9.8L49.38 8.73a8 8 0 0 0-9.8-5.66L24.14 7.21Z"/><defs><clipPath id="e"><path d="M24.13 7.21a8 8 0 0 0-5.66 9.8l4.15 15.45a8 8 0 0 0 9.8 5.66l15.45-4.14a8 8 0 0 0 5.66-9.8L49.38 8.73a8 8 0 0 0-9.8-5.66L24.14 7.21Z"/></clipPath></defs><g clip-path="url(#e)"><path fill="#FFF" d="m34.1 29.28-3.4-12.64 2.68-.72 1.5 5.58.15-.04 3.06-6.8 3.2-.86-3.17 6.92 6.62 5.71-3.2.86-4.85-4.27-.89 1.95.96 3.6-2.67.71Z"/></g></g><defs><filter id="f" color-interpolation-filters="sRGB" filterUnits="userSpaceOnUse"><feComponentTransfer in="SourceAlpha" result="componentTransfer9397732628"><feFuncR slope="0" type="linear"/><feFuncG slope="0" type="linear"/><feFuncB slope="0" type="linear"/><feFuncA slope="10000" type="linear"/></feComponentTransfer><feComponentTransfer in="componentTransfer9397732628" result="componentTransfer2229326624"><feFuncA slope=".1" type="linear"/></feComponentTransfer><feMorphology in="componentTransfer2229326624" radius="2" result="morphology2435336532"/><feOffset dy="2" in="morphology2435336532" result="offset9914586818"/><feGaussianBlur in="offset9914586818" result="gaussianBlur8224559394" stdDeviation="2"/><feComponentTransfer in="SourceAlpha" result="componentTransfer0099812347"><feFuncR slope="0" type="linear"/><feFuncG slope="0" type="linear"/><feFuncB slope="0" type="linear"/><feFuncA slope="10000" type="linear"/></feComponentTransfer><feComponentTransfer in="componentTransfer0099812347" result="componentTransfer6470448992"><feFuncA slope=".1" type="linear"/></feComponentTransfer><feMorphology in="componentTransfer6470448992" radius="1" result="morphology1015300406"/><feOffset dy="4" in="morphology1015300406" result="offset0326991037"/><feGaussianBlur in="offset0326991037" result="gaussianBlur4053823868" stdDeviation="3"/><feMerge><feMergeNode in="gaussianBlur8224559394"/><feMergeNode in="gaussianBlur4053823868"/><feMergeNode in="SourceGraphic"/></feMerge></filter></defs><g filter="url(#f)"><path fill="#4ECDC4" d="M160.41 23.07a8 8 0 0 0-9.8 5.66l-4.14 15.45a8 8 0 0 0 5.66 9.8l15.46 4.14a8 8 0 0 0 9.8-5.66l4.14-15.45a8 8 0 0 0-5.66-9.8l-15.46-4.14Z"/><defs><clipPath id="g"><path d="M160.41 23.07a8 8 0 0 0-9.8 5.66l-4.14 15.45a8 8 0 0 0 5.66 9.8l15.46 4.14a8 8 0 0 0 9.8-5.66l4.14-15.45a8 8 0 0 0-5.66-9.8l-15.46-4.14Z"/></clipPath></defs><g clip-path="url(#g)"><path fill="#FFF" d="m167.96 35.25-3.39 12.64-2.67-.71 3.4-12.65 2.66.72Z"/></g></g><defs><filter id="h" color-interpolation-filters="sRGB" filterUnits="userSpaceOnUse"><feComponentTransfer in="SourceAlpha" result="componentTransfer9970550450"><feFuncR slope="0" type="linear"/><feFuncG slope="0" type="linear"/><feFuncB slope="0" type="linear"/><feFuncA slope="10000" type="linear"/></feComponentTransfer><feComponentTransfer in="componentTransfer9970550450" result="componentTransfer8135282699"><feFuncA slope=".1" type="linear"/></feComponentTransfer><feMorphology in="componentTransfer8135282699" radius="2" result="morphology7036114536"/><feOffset dy="2" in="morphology7036114536" result="offset0413311351"/><feGaussianBlur in="offset0413311351" result="gaussianBlur2152766499" stdDeviation="2"/><feComponentTransfer in="SourceAlpha" result="componentTransfer1337756092"><feFuncR slope="0" type="linear"/><feFuncG slope="0" type="linear"/><feFuncB slope="0" type="linear"/><feFuncA slope="10000" type="linear"/></feComponentTransfer><feComponentTransfer in="componentTransfer1337756092" result="componentTransfer7859333419"><feFuncA slope=".1" type="linear"/></feComponentTransfer><feMorphology in="componentTransfer7859333419" radius="1" result="morphology7220582399"/><feOffset dy="4" in="morphology7220582399" result="offset3494490455"/><feGaussianBlur in="offset3494490455" result="gaussianBlur4218310870" stdDeviation="3"/><feMerge><feMergeNode in="gaussianBlur2152766499"/><feMergeNode in="gaussianBlur4218310870"/><feMergeNode in="SourceGraphic"/></feMerge></filter></defs><g filter="url(#h)"><path fill="#75ED44" d="M35.34 154.23a8 8 0 0 0-6.49 9.27l2.78 15.75a8 8 0 0 0 9.27 6.5l15.76-2.79a8 8 0 0 0 6.49-9.26l-2.78-15.76a8 8 0 0 0-9.27-6.5l-15.76 2.79Z"/><defs><clipPath id="i"><path d="M35.34 154.23a8 8 0 0 0-6.49 9.27l2.78 15.75a8 8 0 0 0 9.27 6.5l15.76-2.79a8 8 0 0 0 6.49-9.26l-2.78-15.76a8 8 0 0 0-9.27-6.5l-15.76 2.79Z"/></clipPath></defs><g clip-path="url(#i)"><path fill="#FFF" d="m47.1 175.95-4.57.8-2.28-12.89 4.6-.81q1.95-.34 3.49.18 1.54.52 2.55 1.83 1.02 1.31 1.37 3.32.36 2.02-.15 3.6-.5 1.58-1.78 2.6-1.27 1.02-3.24 1.37Zm-2.26-2.01 1.72-.3q1.22-.22 1.97-.8.75-.58 1.01-1.56.26-.98 0-2.42-.25-1.43-.83-2.26-.58-.83-1.48-1.12-.9-.28-2.1-.07l-1.74.3 1.45 8.23Z"/></g></g><defs><filter id="j" color-interpolation-filters="sRGB" filterUnits="userSpaceOnUse"><feComponentTransfer in="SourceAlpha" result="componentTransfer8982508301"><feFuncR slope="0" type="linear"/><feFuncG slope="0" type="linear"/><feFuncB slope="0" type="linear"/><feFuncA slope="10000" type="linear"/></feComponentTransfer><feComponentTransfer in="componentTransfer8982508301" result="componentTransfer8421220322"><feFuncA slope=".1" type="linear"/></feComponentTransfer><feMorphology in="componentTransfer8421220322" radius="2" result="morphology2130436152"/><feOffset dy="2" in="morphology2130436152" result="offset6149479297"/><feGaussianBlur in="offset6149479297" result="gaussianBlur4900676306" stdDeviation="2"/><feComponentTransfer in="SourceAlpha" result="componentTransfer9905382038"><feFuncR slope="0" type="linear"/><feFuncG slope="0" type="linear"/><feFuncB slope="0" type="linear"/><feFuncA slope="10000" type="linear"/></feComponentTransfer><feComponentTransfer in="componentTransfer9905382038" result="componentTransfer5476430584"><feFuncA slope=".1" type="linear"/></feComponentTransfer><feMorphology in="componentTransfer5476430584" radius="1" result="morphology0191121761"/><feOffset dy="4" in="morphology0191121761" result="offset1934852356"/><feGaussianBlur in="offset1934852356" result="gaussianBlur0298963341" stdDeviation="3"/><feMerge><feMergeNode in="gaussianBlur4900676306"/><feMergeNode in="gaussianBlur0298963341"/><feMergeNode in="SourceGraphic"/></feMerge></filter></defs><g filter="url(#j)"><path fill="#95E1D3" d="M148.9 141.45a8 8 0 0 0-9.27 6.49l-2.78 15.76a8 8 0 0 0 6.5 9.26l15.75 2.78a8 8 0 0 0 9.27-6.49l2.78-15.75a8 8 0 0 0-6.5-9.27l-15.75-2.78Z"/><defs><clipPath id="k"><path d="M148.9 141.45a8 8 0 0 0-9.27 6.49l-2.78 15.76a8 8 0 0 0 6.5 9.26l15.75 2.78a8 8 0 0 0 9.27-6.49l2.78-15.75a8 8 0 0 0-6.5-9.27l-15.75-2.78Z"/></clipPath></defs><g clip-path="url(#k)"><path fill="#FFF" d="M157.3 156.77q.05-.78-.45-1.3-.5-.53-1.48-.7-.66-.12-1.16 0-.49.1-.8.38-.29.29-.36.7-.07.35.04.63.11.3.36.53.25.23.6.43.35.2.75.37l1.11.48q.81.34 1.46.78.65.44 1.09.99.44.55.61 1.22.18.68.04 1.48-.21 1.18-.96 1.95-.75.76-1.95 1.04-1.2.27-2.77 0-1.57-.28-2.64-.96-1.07-.69-1.55-1.74-.47-1.05-.26-2.45l2.64.46q-.07.66.18 1.15.26.5.77.8.52.32 1.23.44.7.13 1.24.02.54-.12.89-.42.35-.31.43-.78.08-.44-.13-.77-.2-.35-.65-.64-.45-.3-1.12-.59l-1.35-.6q-1.56-.68-2.35-1.69-.8-1.01-.54-2.44.2-1.17.99-1.93.79-.77 1.98-1.06 1.2-.3 2.6-.05 1.44.25 2.43.93.98.68 1.43 1.67.44.98.26 2.13l-2.62-.46Z"/></g></g><defs><filter id="l" color-interpolation-filters="sRGB" filterUnits="userSpaceOnUse"><feComponentTransfer in="SourceAlpha" result="componentTransfer2904884982"><feFuncR slope="0" type="linear"/><feFuncG slope="0" type="linear"/><feFuncB slope="0" type="linear"/><feFuncA slope="10000" type="linear"/></feComponentTransfer><feComponentTransfer in="componentTransfer2904884982" result="componentTransfer7486138046"><feFuncA slope=".1" type="linear"/></feComponentTransfer><feMorphology in="componentTransfer7486138046" radius="2" result="morphology4554391410"/><feOffset dy="2" in="morphology4554391410" result="offset1159064449"/><feGaussianBlur in="offset1159064449" result="gaussianBlur5919408800" stdDeviation="2"/><feComponentTransfer in="SourceAlpha" result="componentTransfer5577399852"><feFuncR slope="0" type="linear"/><feFuncG slope="0" type="linear"/><feFuncB slope="0" type="linear"/><feFuncA slope="10000" type="linear"/></feComponentTransfer><feComponentTransfer in="componentTransfer5577399852" result="componentTransfer4008814559"><feFuncA slope=".1" type="linear"/></feComponentTransfer><feMorphology in="componentTransfer4008814559" radius="1" result="morphology0876201042"/><feOffset dy="4" in="morphology0876201042" result="offset0632471509"/><feGaussianBlur in="offset0632471509" result="gaussianBlur1560818125" stdDeviation="3"/><feMerge><feMergeNode in="gaussianBlur5919408800"/><feMergeNode in="gaussianBlur1560818125"/><feMergeNode in="SourceGraphic"/></feMerge></filter></defs><g filter="url(#l)"><path fill="#FF8B94" d="M167.42 103.96a8 8 0 0 0-8.66 7.27l-1.4 15.94a8 8 0 0 0 7.28 8.67l15.93 1.4a8 8 0 0 0 8.67-7.28l1.4-15.94a8 8 0 0 0-7.28-8.67l-15.94-1.4Z"/><defs><clipPath id="m"><path d="M167.42 103.96a8 8 0 0 0-8.66 7.27l-1.4 15.94a8 8 0 0 0 7.28 8.67l15.93 1.4a8 8 0 0 0 8.67-7.28l1.4-15.94a8 8 0 0 0-7.28-8.67l-15.94-1.4Z"/></clipPath></defs><g clip-path="url(#m)"><path fill="#FFF" d="m176.22 114.66-1.05 9.11-2.34-.2.55-9.15 2.84.24Zm-2.58 13.08q-.63-.05-1.04-.54-.41-.48-.35-1.12.05-.62.54-1.02.49-.41 1.12-.36.61.06 1.03.54.42.49.37 1.1-.04.43-.29.76-.24.33-.6.5-.37.18-.78.14Z"/></g></g></svg>