<svg xmlns="http://www.w3.org/2000/svg" width="24" height="24"><defs><clipPath id="a"><path d="M0 1.33h24v21.34H0V1.33Z"/></clipPath></defs><g clip-path="url(#a)"><defs><clipPath id="b"><path d="M0 1.33h24v21.34H0V1.33Z"/></clipPath></defs><g clip-path="url(#b)"><path fill="#FFD93D" d="m10.8 3.18-2.72 4.9L2 8.87c-1.1.14-1.53 1.34-.74 2.02l4.4 3.82-1.04 5.39c-.19.97.97 1.7 1.93 1.24L12 18.8l5.45 2.54c.96.46 2.12-.27 1.93-1.24l-1.04-5.4 4.4-3.8c.8-.7.36-1.89-.74-2.03l-6.08-.79-2.72-4.9c-.5-.88-1.9-.89-2.4 0Z"/></g></g></svg>