<svg xmlns="http://www.w3.org/2000/svg" width="75" height="48"><defs><clipPath id="a"><path d="M23 29.11h20V46.9H23V29.1Z"/></clipPath></defs><g clip-path="url(#a)"><defs><clipPath id="b"><path d="M23 29.11h20V46.9H23V29.1Z"/></clipPath></defs></g><path fill="#A8E6CF" d="M6 4a5.98 5.98 0 1 0 0 12A6 6 0 1 0 6 4Z" opacity=".6"/><path fill="#4ECDC4" d="m32 30.65-2.26 4.08-5.08.66c-.9.12-1.27 1.12-.61 1.69l3.67 3.18-.87 4.49c-.16.8.8 1.42 1.61 1.04L33 43.67l4.54 2.12c.8.37 1.77-.23 1.6-1.04l-.86-4.5 3.67-3.17c.66-.57.3-1.57-.61-1.69l-5.08-.66L34 30.65c-.41-.73-1.59-.74-2 0Z"/><path fill="#FF6B6B" d="M67 0a8 8 0 0 0-8 8v.01A7.98 7.98 0 0 0 66.99 16H67c4.42 0 8-3.57 8-7.99V8c0-4.42-3.57-8-7.99-8H67Z" opacity=".4"/></svg>