<?xml version="1.0" encoding="utf-8" ?>
<svg xmlns="http://www.w3.org/2000/svg" xmlns:xlink="http://www.w3.org/1999/xlink" width="75" height="48" viewBox="0 0 75 48">
	<defs>
		<clipPath id="clipPath1354297819">
			<path transform="matrix(1 0 0 1 23 29.1111)" d="M0 0L20 0L20 17.7778L0 17.7778L0 0Z" fill-rule="nonzero"/>
		</clipPath>
	</defs>
	<g clip-path="url(#clipPath1354297819)">
		<defs>
			<clipPath id="clipPath9993813289">
				<path transform="matrix(1 0 0 1 23 29.1111)" d="M0 0L20 0L20 17.7778L0 17.7778L0 0Z" fill-rule="nonzero"/>
			</clipPath>
		</defs>
		<g clip-path="url(#clipPath9993813289)"/>
	</g>
	<path transform="matrix(1 0 0 1 0 4)" d="M6 0C2.68629 0 0 2.68629 0 6L0 6.009C0 9.32271 2.67729 12 5.991 12L6 12C9.31371 12 12 9.32271 12 6.009L12 6C12 2.68629 9.32271 0 6.009 0L6 0Z" fill-rule="nonzero" fill="rgb(168, 230, 207)" opacity="0.6"/>
	<path transform="matrix(1 0 0 1 23.7119 30.0984)" d="M8.29168 0.549774L6.02432 4.63619L0.951405 5.2936C0.0416832 5.41089 -0.3229 6.4078 0.336822 6.97879L4.00696 10.1578L3.13891 14.6485C2.98266 15.4603 3.94446 16.0683 4.75002 15.6887L9.28821 13.5683L13.8264 15.6887C14.632 16.0652 15.5938 15.4603 15.4375 14.6485L14.5695 10.1578L18.2396 6.97879C18.8993 6.4078 18.5347 5.41089 17.625 5.2936L12.5521 4.63619L10.2847 0.549774C9.87849 -0.178621 8.70141 -0.18788 8.29168 0.549774Z" fill-rule="nonzero" fill="rgb(78, 205, 196)"/>
	<path transform="matrix(1 0 0 1 59 0)" d="M8 0C3.58172 0 0 3.58172 0 8L0 8.012C0 12.4303 3.56972 16 7.988 16L8 16C12.4183 16 16 12.4303 16 8.012L16 8C16 3.58172 12.4303 0 8.012 0L8 0Z" fill-rule="nonzero" fill="rgb(255, 107, 107)" opacity="0.4"/>
</svg>
