<?xml version="1.0" encoding="utf-8" ?>
<svg xmlns="http://www.w3.org/2000/svg" xmlns:xlink="http://www.w3.org/1999/xlink" width="11.915" height="10.1277" viewBox="0 0 11.915 10.1277">
	<path transform="matrix(1 0 0 1 -0.000488281 -1.01328e-06)" d="M5.31833 0.352301L3.86403 2.97093L0.610236 3.3922C0.0267358 3.46736 -0.20711 4.10619 0.216039 4.47209L2.57008 6.50923L2.01331 9.38695C1.91309 9.90711 2.53 10.2967 3.04668 10.0535L5.95751 8.69472L8.86833 10.0535C9.38501 10.2948 10.0019 9.90711 9.9017 9.38695L9.34493 6.50923L11.699 4.47208C12.1221 4.10619 11.8883 3.46736 11.3048 3.3922L8.05098 2.97093L6.59668 0.352301C6.33611 -0.114462 5.58113 -0.120396 5.31833 0.352301Z" fill-rule="nonzero" fill="rgb(255, 217, 61)"/>
</svg>
