<?xml version="1.0" encoding="utf-8" ?>
<svg xmlns="http://www.w3.org/2000/svg" xmlns:xlink="http://www.w3.org/1999/xlink" width="178.8608" height="174.1259" viewBox="0 0 178.8608 174.1259">
	<path transform="matrix(1 0 0 1 16.875 19.1426)" d="M141.328 12.6562L118.125 12.6562L118.125 5.625C118.125 2.53125 115.594 0 112.5 0L33.75 0C30.6562 0 28.125 2.53125 28.125 5.625L28.125 12.6562L4.92188 12.6562C2.21484 12.6562 0 14.8711 0 17.5781C0 32.0977 2.74219 40.7812 7.94531 49.3594C12.7266 57.2344 19.5117 62.0859 27.7383 63.5273C28.7227 63.7031 29.5312 64.3359 29.918 65.25C32.0977 70.6641 37.0195 77.4844 47.8828 83.6016C54.9844 87.6094 60.8555 90.0351 66.0586 91.1953C67.3242 91.4766 68.2383 92.6367 68.2383 93.9375L68.2383 122.344C68.2383 123.891 66.9726 125.156 65.4258 125.156L42.3633 125.156C39.7266 125.156 37.4414 127.195 37.3008 129.832C37.1602 132.645 39.4101 135 42.2226 135L103.957 135C106.594 135 108.879 132.961 109.02 130.324C109.16 127.512 106.91 125.156 104.098 125.156L80.8945 125.156C79.3476 125.156 78.082 123.891 78.082 122.344L78.082 93.9726C78.082 92.6719 78.9961 91.5117 80.2617 91.2305C85.4297 90.0703 91.3359 87.6094 98.4375 83.6367C109.301 77.5195 114.223 70.6992 116.402 65.2852C116.789 64.3711 117.598 63.7031 118.582 63.5625C126.809 62.1211 133.594 57.2695 138.375 49.3945C143.508 40.7812 146.25 32.0977 146.25 17.5781C146.25 14.8711 144.035 12.6562 141.328 12.6562ZM28.125 51.5391C28.125 52.5234 27.1406 53.2266 26.2266 52.875C21.7266 51.1524 18.0703 47.707 15.4688 42.7148C13.4297 38.8477 11.0391 35.1914 10.1602 25.5586C10.0195 23.9063 11.3203 22.5 12.9727 22.5L25.3125 22.5C26.8594 22.5 28.125 23.7656 28.125 25.3125L28.125 51.5391ZM130.781 42.7148C128.18 47.707 124.523 51.1523 120.023 52.875C119.109 53.2266 118.125 52.5234 118.125 51.5391L118.125 25.3125C118.125 23.7656 119.391 22.5 120.938 22.5L133.277 22.5C134.93 22.5 136.23 23.9062 136.09 25.5586C135.211 35.1914 132.785 38.8477 130.781 42.7148Z" fill-rule="nonzero" fill="rgb(255, 184, 0)"/>
	<path transform="matrix(1 0 0 1 149.139 0)" d="M13.2667 0.879638L9.63892 7.41791L1.52225 8.46976C0.0666932 8.65742 -0.51664 10.2525 0.538915 11.1661L6.41114 16.2525L5.02225 23.4377C4.77225 24.7364 6.31114 25.7093 7.60003 25.1019L14.8611 21.7093L22.1222 25.1019C23.4111 25.7043 24.95 24.7364 24.7 23.4377L23.3111 16.2525L29.1834 11.1661C30.2389 10.2525 29.6556 8.65742 28.2 8.46976L20.0834 7.41791L16.4556 0.879638C15.8056 -0.285794 13.9222 -0.300609 13.2667 0.879638Z" fill-rule="nonzero" fill="rgb(255, 107, 107)"/>
	<path transform="matrix(1 0 0 1 0.854248 155.161)" d="M9.95002 0.659729L7.22919 5.56343L1.14169 6.35232C0.0500199 6.49306 -0.38748 7.68936 0.404186 8.37455L4.80835 12.1894L3.76669 17.5783C3.57919 18.5523 4.73335 19.282 5.70002 18.8264L11.1459 16.282L16.5917 18.8264C17.5584 19.2783 18.7125 18.5523 18.525 17.5782L17.4834 12.1894L21.8875 8.37454C22.6792 7.68936 22.2417 6.49306 21.15 6.35232L15.0625 5.56343L12.3417 0.659729C11.8542 -0.214345 10.4417 -0.225456 9.95002 0.659729Z" fill-rule="nonzero" fill="rgb(78, 205, 196)"/>
	<defs>
		<clipPath id="clipPath8549057002">
			<path transform="matrix(1 0 0 1 0 87.7537)" d="M0 0L20 0L20 17.7778L0 17.7778L0 0Z" fill-rule="nonzero"/>
		</clipPath>
	</defs>
	<g clip-path="url(#clipPath8549057002)">
		<defs>
			<clipPath id="clipPath1844893698">
				<path transform="matrix(1 0 0 1 0 87.7537)" d="M0 0L20 0L20 17.7778L0 17.7778L0 0Z" fill-rule="nonzero"/>
			</clipPath>
		</defs>
		<g clip-path="url(#clipPath1844893698)">
			<path transform="matrix(1 0 0 1 0.711792 88.741)" d="M8.29168 0.549774L6.02432 4.63619L0.951405 5.2936C0.0416832 5.41089 -0.3229 6.4078 0.336822 6.97879L4.00696 10.1578L3.13891 14.6485C2.98266 15.4603 3.94446 16.0683 4.75002 15.6887L9.28821 13.5683L13.8264 15.6887C14.632 16.0652 15.5938 15.4603 15.4375 14.6485L14.5695 10.1578L18.2396 6.97879C18.8993 6.4078 18.5347 5.41089 17.625 5.2936L12.5521 4.63619L10.2847 0.549774C9.87849 -0.178621 8.70141 -0.18788 8.29168 0.549774Z" fill-rule="nonzero" fill="rgb(69, 183, 209)"/>
		</g>
	</g>
</svg>
