<svg xmlns="http://www.w3.org/2000/svg" width="178.86" height="174.13"><path fill="#FFB800" d="M158.2 31.8H135v-7.03c0-3.1-2.53-5.63-5.63-5.63H50.63A5.64 5.64 0 0 0 45 24.77v7.03H21.8a4.94 4.94 0 0 0-4.93 4.92c0 14.52 2.75 23.2 7.95 31.78 4.78 7.88 11.57 12.73 19.8 14.17.98.18 1.79.8 2.17 1.72 2.18 5.42 7.1 12.24 17.97 18.35 7.1 4.01 12.97 6.44 18.17 7.6a2.82 2.82 0 0 1 2.18 2.74v28.4a2.82 2.82 0 0 1-2.8 2.82H59.23a5.04 5.04 0 0 0-5.06 4.67 4.93 4.93 0 0 0 4.92 5.17h61.73a5.04 5.04 0 0 0 5.06-4.67 4.93 4.93 0 0 0-4.92-5.17h-23.2a2.82 2.82 0 0 1-2.81-2.81v-28.37c0-1.3.91-2.47 2.18-2.75 5.16-1.16 11.07-3.62 18.17-7.6 10.87-6.1 15.79-12.93 17.97-18.34a2.82 2.82 0 0 1 2.18-1.72c8.22-1.45 15-6.3 19.79-14.17 5.13-8.62 7.88-17.3 7.88-31.82 0-2.7-2.22-4.92-4.93-4.92ZM45 70.68c0 .99-.98 1.69-1.9 1.34-4.5-1.72-8.15-5.17-10.76-10.16-2.04-3.87-4.43-7.53-5.3-17.16a2.82 2.82 0 0 1 2.8-3.06H42.2A2.82 2.82 0 0 1 45 44.46v26.22Zm102.66-8.82c-2.6 4.99-6.26 8.43-10.76 10.16-.92.35-1.9-.35-1.9-1.34V44.46a2.82 2.82 0 0 1 2.81-2.82h12.34c1.66 0 2.95 1.4 2.81 3.06-.87 9.63-3.3 13.29-5.3 17.16Z"/><path fill="#FF6B6B" d="m162.4.88-3.62 6.54-8.12 1.05c-1.45.19-2.04 1.78-.98 2.7l5.87 5.08-1.39 7.19c-.25 1.3 1.29 2.27 2.58 1.66l7.26-3.4 7.26 3.4c1.29.6 2.83-.36 2.58-1.66l-1.39-7.19 5.87-5.08c1.06-.92.47-2.51-.98-2.7l-8.12-1.05L165.6.88c-.65-1.17-2.53-1.18-3.18 0Z"/><path fill="#4ECDC4" d="m10.8 155.82-2.72 4.9-6.08.8c-1.1.13-1.53 1.33-.74 2.02l4.4 3.81-1.04 5.39c-.19.97.97 1.7 1.93 1.25l5.45-2.55 5.45 2.55c.96.45 2.12-.28 1.93-1.25l-1.04-5.39 4.4-3.81c.8-.69.36-1.89-.74-2.03l-6.08-.79-2.72-4.9c-.5-.87-1.9-.88-2.4 0Z"/><defs><clipPath id="a"><path d="M0 87.75h20v17.78H0V87.75Z"/></clipPath></defs><g clip-path="url(#a)"><defs><clipPath id="b"><path d="M0 87.75h20v17.78H0V87.75Z"/></clipPath></defs><g clip-path="url(#b)"><path fill="#45B7D1" d="m9 89.3-2.26 4.08-5.08.65c-.9.12-1.27 1.12-.61 1.69l3.67 3.18-.87 4.49c-.16.81.8 1.42 1.61 1.04l4.54-2.12 4.54 2.12c.8.38 1.77-.23 1.6-1.04l-.86-4.5 3.67-3.17c.66-.57.3-1.57-.61-1.69l-5.08-.65L11 89.29c-.41-.73-1.59-.74-2 0Z"/></g></g></svg>