<?xml version="1.0" encoding="utf-8" ?>
<svg xmlns="http://www.w3.org/2000/svg" xmlns:xlink="http://www.w3.org/1999/xlink" width="138.918" height="33.9355" viewBox="0 0 138.918 33.9355">
	<defs>
		<filter id="filter3917682736" filterUnits="userSpaceOnUse" color-interpolation-filters="sRGB">
			<feComponentTransfer in="SourceAlpha" result="componentTransfer6633920030">
				<feFuncR type="linear" slope="0" intercept="0"/>
				<feFuncG type="linear" slope="0" intercept="0"/>
				<feFuncB type="linear" slope="0" intercept="0"/>
				<feFuncA type="linear" slope="10000" intercept="0"/>
			</feComponentTransfer>
			<feComponentTransfer in="componentTransfer6633920030" result="componentTransfer2921786475">
				<feFuncA type="linear" slope="0.1" intercept="0"/>
			</feComponentTransfer>
			<feOffset dx="0" dy="4" in="componentTransfer2921786475" result="offset5629306802"/>
			<feGaussianBlur stdDeviation="4" in="offset5629306802" result="gaussianBlur9471631357"/>
			<feMerge>
				<feMergeNode in="gaussianBlur9471631357"/>
				<feMergeNode in="SourceGraphic"/>
			</feMerge>
		</filter>
	</defs>
	<g filter="url(#filter3917682736)">
		<path transform="matrix(1 0 0 1 7.58984 -15.3047)" d="M5.55469 37L0.410156 19.5449L5.69531 19.5449L8.08008 30.2852L8.21484 30.2852L11.0449 19.5449L15.2051 19.5449L18.0352 30.3203L18.1699 30.3203L20.5547 19.5449L25.8398 19.5449L20.6953 37L16.1602 37L13.1953 27.25L13.0547 27.25L10.0898 37L5.55469 37Z" fill-rule="nonzero" fill="rgb(255, 107, 107)"/>
		<path transform="matrix(1 0 0 1 7.58984 -15.3047)" d="M46.5943 28.2754Q46.5943 31.1875 45.4576 33.1855Q44.3267 35.1836 42.399 36.2148Q40.4713 37.2402 38.1041 37.2402Q35.7193 37.2402 33.7974 36.2031Q31.8756 35.166 30.7447 33.168Q29.6139 31.1699 29.6139 28.2754Q29.6139 25.3574 30.7447 23.3594Q31.8756 21.3613 33.7974 20.3359Q35.7193 19.3047 38.1041 19.3047Q40.4713 19.3047 42.399 20.3359Q44.3267 21.3613 45.4576 23.3594Q46.5943 25.3574 46.5943 28.2754ZM41.7193 28.2754Q41.7193 26.7051 41.3033 25.627Q40.8932 24.5488 40.0846 23.9922Q39.2818 23.4297 38.1041 23.4297Q36.9264 23.4297 36.1178 23.9922Q35.315 24.5488 34.899 25.627Q34.4889 26.7051 34.4889 28.2754Q34.4889 29.8398 34.899 30.918Q35.315 31.9961 36.1178 32.5586Q36.9264 33.1152 38.1041 33.1152Q39.2818 33.1152 40.0846 32.5586Q40.8932 31.9961 41.3033 30.918Q41.7193 29.8398 41.7193 28.2754Z" fill-rule="nonzero" fill="rgb(78, 205, 196)"/>
		<path transform="matrix(1 0 0 1 7.58984 -15.3047)" d="M52.1751 37L52.1751 19.5449L59.7103 19.5449Q61.6497 19.5449 63.1087 20.2539Q64.5677 20.9629 65.3763 22.293Q66.1849 23.6172 66.1849 25.4746Q66.1849 27.3496 65.3529 28.6387Q64.5267 29.9277 63.0267 30.584Q61.5325 31.2402 59.5404 31.2402L55.0404 31.2402L55.0404 27.5547L58.5853 27.5547Q59.4173 27.5547 60.0091 27.3496Q60.6068 27.1387 60.9232 26.6816Q61.2454 26.2188 61.2454 25.4746Q61.2454 24.7246 60.9232 24.2559Q60.6068 23.7812 60.0091 23.5586Q59.4173 23.3301 58.5853 23.3301L56.9154 23.3301L56.9154 37L52.1751 37ZM62.3997 28.9902L66.765 37L61.6204 37L57.3548 28.9902L62.3997 28.9902Z" fill-rule="nonzero" fill="rgb(255, 217, 61)"/>
		<path transform="matrix(1 0 0 1 7.58984 -15.3047)" d="M78.3127 37L71.5979 37L71.5979 19.5449L78.2483 19.5449Q80.9377 19.5449 82.9006 20.5879Q84.8694 21.6309 85.9358 23.5879Q87.008 25.5449 87.008 28.2754Q87.008 31 85.9416 32.957Q84.8752 34.9141 82.9241 35.957Q80.9729 37 78.3127 37ZM76.3381 32.9746L78.1428 32.9746Q79.4377 32.9746 80.3518 32.5586Q81.2717 32.1426 81.7522 31.123Q82.2327 30.0977 82.2327 28.2754Q82.2327 26.4473 81.7405 25.4277Q81.2541 24.4023 80.3108 23.9863Q79.3733 23.5703 78.008 23.5703L76.3381 23.5703L76.3381 32.9746Z" fill-rule="nonzero" fill="rgb(108, 92, 231)"/>
		<path transform="matrix(1 0 0 1 7.58984 -15.3047)" d="M92.5888 37L92.5888 19.5449L97.3291 19.5449L97.3291 33.1797L104.384 33.1797L104.384 37L92.5888 37Z" fill-rule="nonzero" fill="rgb(168, 230, 207)"/>
		<path transform="matrix(1 0 0 1 7.58984 -15.3047)" d="M105.808 19.5449L111.093 19.5449L114.498 26.6348L114.638 26.6348L118.048 19.5449L123.328 19.5449L116.923 31.5098L116.923 37L112.218 37L112.218 31.5098L105.808 19.5449Z" fill-rule="nonzero" fill="rgb(255, 139, 148)"/>
	</g>
</svg>
