<svg xmlns="http://www.w3.org/2000/svg" width="138.92" height="33.94"><defs><filter id="a" color-interpolation-filters="sRGB" filterUnits="userSpaceOnUse"><feComponentTransfer in="SourceAlpha" result="componentTransfer6633920030"><feFuncR slope="0" type="linear"/><feFuncG slope="0" type="linear"/><feFuncB slope="0" type="linear"/><feFuncA slope="10000" type="linear"/></feComponentTransfer><feComponentTransfer in="componentTransfer6633920030" result="componentTransfer2921786475"><feFuncA slope=".1" type="linear"/></feComponentTransfer><feOffset dy="4" in="componentTransfer2921786475" result="offset5629306802"/><feGaussianBlur in="offset5629306802" result="gaussianBlur9471631357" stdDeviation="4"/><feMerge><feMergeNode in="gaussianBlur9471631357"/><feMergeNode in="SourceGraphic"/></feMerge></filter></defs><g filter="url(#a)"><path fill="#FF6B6B" d="M13.14 21.7 8 4.24h5.29l2.38 10.74h.13l2.83-10.74h4.16l2.84 10.78h.13l2.38-10.78h5.29L28.29 21.7h-4.54l-2.96-9.75h-.15l-2.96 9.75h-4.54Z"/><path fill="#4ECDC4" d="M54.18 12.97q0 2.91-1.13 4.91t-3.06 3.03q-1.93 1.03-4.3 1.03-2.38 0-4.3-1.04t-3.06-3.04q-1.13-2-1.13-4.89 0-2.92 1.13-4.92 1.14-2 3.06-3.02Q43.3 4 45.69 4q2.37 0 4.3 1.03 1.93 1.03 3.06 3.02 1.13 2 1.13 4.92Zm-4.87 0q0-1.57-.42-2.65-.4-1.08-1.22-1.63-.8-.56-1.98-.56-1.17 0-1.98.56-.8.55-1.22 1.63-.41 1.08-.41 2.65 0 1.57.4 2.64.42 1.08 1.23 1.64.8.56 1.98.56t1.98-.56q.81-.56 1.22-1.64.42-1.07.42-2.64Z"/><path fill="#FFD93D" d="M59.76 21.7V4.24h7.54q1.94 0 3.4.7 1.46.72 2.27 2.05.8 1.32.8 3.18 0 1.87-.83 3.16-.82 1.3-2.32 1.95-1.5.66-3.49.66h-4.5v-3.69h3.55q.83 0 1.42-.2.6-.22.91-.67.33-.47.33-1.21 0-.75-.33-1.22-.31-.47-.91-.7-.6-.22-1.42-.22H64.5V21.7h-4.75ZM70 13.69l4.36 8h-5.14l-4.27-8H70Z"/><path fill="#6C5CE7" d="M85.9 21.7H79.2V4.24h6.65q2.69 0 4.65 1.04 1.97 1.05 3.04 3 1.07 1.96 1.07 4.7 0 2.72-1.07 4.67-1.06 1.96-3.02 3-1.95 1.05-4.6 1.05Zm-1.97-4.03h1.8q1.3 0 2.21-.42.92-.41 1.4-1.43.48-1.03.48-2.85 0-1.83-.49-2.85T87.9 8.68q-.94-.41-2.3-.41h-1.67v9.4Z"/><path fill="#A8E6CF" d="M100.18 21.7V4.24h4.74v13.63h7.05v3.83h-11.8Z"/><path fill="#FF8B94" d="M113.4 4.24h5.28l3.4 7.09h.15l3.4-7.09h5.29l-6.4 11.97v5.49h-4.71v-5.5L113.4 4.25Z"/></g></svg>