<svg xmlns="http://www.w3.org/2000/svg" width="230.25" height="35.94"><defs><linearGradient id="a" x1="0" x2="1" y1=".5" y2=".5" gradientTransform="scale(235.828 71)" gradientUnits="userSpaceOnUse"><stop offset="0" stop-color="#FF6B6B"/><stop offset=".5" stop-color="#4ECDC4"/><stop offset="1" stop-color="#2AD300"/></linearGradient></defs><path fill="url(#a)" d="M1.32 18.09H11.9l6.8 14.18H19l6.82-14.18h10.55l-12.8 23.93V53h-9.41V42.02L1.32 18.09Z" transform="translate(-1.33 -17.6)"/><defs><linearGradient id="b" x1="0" x2="1" y1=".5" y2=".5" gradientTransform="scale(235.828 71)" gradientUnits="userSpaceOnUse"><stop offset="0" stop-color="#FF6B6B"/><stop offset=".5" stop-color="#4ECDC4"/><stop offset="1" stop-color="#2AD300"/></linearGradient></defs><path fill="url(#b)" d="M70.8 35.55q0 5.83-2.27 9.82-2.26 4-6.12 6.06-3.85 2.05-8.59 2.05-4.77 0-8.61-2.07-3.85-2.08-6.1-6.07-2.27-4-2.27-9.79 0-5.84 2.26-9.83 2.26-4 6.1-6.05 3.85-2.06 8.62-2.06 4.74 0 8.6 2.06 3.85 2.05 6.1 6.05 2.28 4 2.28 9.83Zm-9.75 0q0-3.14-.83-5.3-.82-2.15-2.44-3.27-1.6-1.12-3.96-1.12-2.35 0-3.97 1.12-1.6 1.12-2.44 3.27-.82 2.16-.82 5.3 0 3.13.82 5.29.83 2.15 2.44 3.28 1.62 1.11 3.97 1.11 2.36 0 3.96-1.11 1.62-1.13 2.44-3.28.83-2.16.83-5.29Z" transform="translate(-1.33 -17.6)"/><defs><linearGradient id="c" x1="0" x2="1" y1=".5" y2=".5" gradientTransform="scale(235.828 71)" gradientUnits="userSpaceOnUse"><stop offset="0" stop-color="#FF6B6B"/><stop offset=".5" stop-color="#4ECDC4"/><stop offset="1" stop-color="#2AD300"/></linearGradient></defs><path fill="url(#c)" d="M95.82 18.09h9.49v22.36q0 4-1.92 6.9-1.9 2.9-5.3 4.49-3.38 1.57-7.86 1.57-4.52 0-7.92-1.57-3.38-1.58-5.27-4.49-1.88-2.9-1.88-6.9V18.09h9.48v21.55q0 1.62.72 2.9.71 1.26 1.98 1.98 1.28.71 2.9.71 1.62 0 2.89-.71 1.26-.72 1.98-1.98.71-1.28.71-2.9V18.1Z" transform="translate(-1.33 -17.6)"/><defs><linearGradient id="d" x1="0" x2="1" y1=".5" y2=".5" gradientTransform="scale(235.828 71)" gradientUnits="userSpaceOnUse"><stop offset="0" stop-color="#FF6B6B"/><stop offset=".5" stop-color="#4ECDC4"/><stop offset="1" stop-color="#2AD300"/></linearGradient></defs><path fill="url(#d)" d="m128.2 53-10.28-34.91h10.57l4.77 21.48h.27l5.66-21.48h8.32l5.66 21.55h.27l4.77-21.55h10.57L158.48 53h-9.06l-5.93-19.5h-.28L137.28 53h-9.07Z" transform="translate(-1.33 -17.6)"/><defs><linearGradient id="e" x1="0" x2="1" y1=".5" y2=".5" gradientTransform="scale(235.828 71)" gradientUnits="userSpaceOnUse"><stop offset="0" stop-color="#FF6B6B"/><stop offset=".5" stop-color="#4ECDC4"/><stop offset="1" stop-color="#2AD300"/></linearGradient></defs><path fill="url(#e)" d="M181.33 18.09V53h-9.48V18.09h9.48Z" transform="translate(-1.33 -17.6)"/><defs><linearGradient id="f" x1="0" x2="1" y1=".5" y2=".5" gradientTransform="scale(235.828 71)" gradientUnits="userSpaceOnUse"><stop offset="0" stop-color="#FF6B6B"/><stop offset=".5" stop-color="#4ECDC4"/><stop offset="1" stop-color="#2AD300"/></linearGradient></defs><path fill="url(#f)" d="M216.02 18.09V53h-7.9L195.5 34.66h-.2V53h-9.48V18.09h8.05l12.4 18.27h.28V18.09h9.47Z" transform="translate(-1.33 -17.6)"/><defs><linearGradient id="g" x1="0" x2="1" y1=".5" y2=".5" gradientTransform="scale(235.828 71)" gradientUnits="userSpaceOnUse"><stop offset="0" stop-color="#FF6B6B"/><stop offset=".5" stop-color="#4ECDC4"/><stop offset="1" stop-color="#2AD300"/></linearGradient></defs><path fill="url(#g)" d="m231.58 18.09-.9 24h-7.76l-.9-24h9.56Zm-4.78 35.46q-1.97 0-3.38-1.4-1.4-1.39-1.4-3.38 0-1.95 1.4-3.32 1.4-1.38 3.38-1.38 1.87 0 3.31 1.38 1.44 1.37 1.47 3.32-.03 1.34-.7 2.41-.67 1.08-1.75 1.73-1.07.64-2.33.64Z" transform="translate(-1.33 -17.6)"/></svg>