<svg xmlns="http://www.w3.org/2000/svg" width="80" height="80"><path fill="#9D50BB" fill-opacity=".13" d="M24 0A24 24 0 0 0 0 24v32a24 24 0 0 0 24 24h32a24 24 0 0 0 24-24V24A24 24 0 0 0 56 0H24Z"/><defs><clipPath id="a"><path d="M16 18.67h48v42.66H16V18.67Z"/></clipPath></defs><g clip-path="url(#a)"><defs><clipPath id="b"><path d="M16 18.67h48v42.66H16V18.67Z"/></clipPath></defs><g clip-path="url(#b)"><path fill="#9D50BB" d="M50.67 35.26c0-6.55-7.76-11.85-17.34-11.85C23.76 23.4 16 28.7 16 35.26c0 2.54 1.18 4.88 3.17 6.81a16.74 16.74 0 0 1-2.99 4.04.54.54 0 0 0-.12.65c.1.22.34.35.6.35 3.06 0 5.58-.91 7.4-1.85a23.43 23.43 0 0 0 9.27 1.85c9.58 0 17.34-5.3 17.34-11.85Zm10.16 16.3c2-1.93 3.17-4.28 3.17-6.82 0-4.95-4.46-9.2-10.77-10.97.07.49.1.99.1 1.49 0 7.84-8.97 14.22-20 14.22-.9 0-1.77-.06-2.64-.14 2.63 4.26 8.8 7.25 15.98 7.25 3.41 0 6.59-.68 9.27-1.85 1.82.94 4.34 1.85 7.4 1.85.26 0 .5-.14.6-.35a.54.54 0 0 0-.12-.65c-.03-.02-1.87-1.79-2.99-4.03Z"/></g></g></svg>