<?xml version="1.0" encoding="utf-8" ?>
<svg xmlns="http://www.w3.org/2000/svg" xmlns:xlink="http://www.w3.org/1999/xlink" width="80" height="80" viewBox="0 0 80 80">
	<path transform="matrix(1 0 0 1 0 0)" d="M24 0C10.7452 0 0 10.7452 0 24L0 56C0 69.2548 10.7452 80 24 80L56 80C69.2548 80 80 69.2548 80 56L80 24C80 10.7452 69.2548 0 56 0L24 0Z" fill-rule="nonzero" fill="rgb(157, 80, 187)" fill-opacity="0.125"/>
	<defs>
		<clipPath id="clipPath1522470794">
			<path transform="matrix(1 0 0 1 16 18.6667)" d="M0 0L48 0L48 42.6667L0 42.6667L0 0Z" fill-rule="nonzero"/>
		</clipPath>
	</defs>
	<g clip-path="url(#clipPath1522470794)">
		<defs>
			<clipPath id="clipPath1360610334">
				<path transform="matrix(1 0 0 1 16 18.6667)" d="M0 0L48 0L48 42.6667L0 42.6667L0 0Z" fill-rule="nonzero"/>
			</clipPath>
		</defs>
		<g clip-path="url(#clipPath1360610334)">
			<path transform="matrix(1 0 0 1 16 23.4074)" d="M34.6667 11.8519C34.6667 5.3037 26.9083 0 17.3333 0C7.75833 0 0 5.3037 0 11.8519C0 14.3926 1.175 16.7333 3.16667 18.6667C2.05 20.9037 0.208333 22.6815 0.183333 22.7037C5.96046e-08 22.8741 -0.0499999 23.1259 0.0583334 23.3482C0.166667 23.5704 0.4 23.7037 0.666667 23.7037C3.71667 23.7037 6.24167 22.7926 8.05833 21.8519C10.7417 23.0148 13.9167 23.7037 17.3333 23.7037C26.9083 23.7037 34.6667 18.4 34.6667 11.8519ZM44.8333 28.1482C46.825 26.2222 48 23.8741 48 21.3333C48 16.3778 43.5417 12.1333 37.225 10.363C37.3 10.8519 37.3333 11.3481 37.3333 11.8519C37.3333 19.6963 28.3583 26.0741 17.3333 26.0741C16.4333 26.0741 15.5583 26.0148 14.6917 25.9333C17.3167 30.1926 23.4833 33.1852 30.6667 33.1852C34.0833 33.1852 37.2583 32.5037 39.9417 31.3333C41.7583 32.2741 44.2833 33.1852 47.3333 33.1852C47.6 33.1852 47.8417 33.0444 47.9417 32.8296C48.05 32.6148 48 32.363 47.8167 32.1852C47.7917 32.163 45.95 30.3926 44.8333 28.1482Z" fill-rule="nonzero" fill="rgb(157, 80, 187)"/>
		</g>
	</g>
</svg>
