<svg xmlns="http://www.w3.org/2000/svg" width="80" height="80"><path fill="#FF6B6B" fill-opacity=".13" d="M24 0A24 24 0 0 0 0 24v32a24 24 0 0 0 24 24h32a24 24 0 0 0 24-24V24A24 24 0 0 0 56 0H24Z"/><defs><clipPath id="a"><path d="M16 16h48v48H16V16Z"/></clipPath></defs><g clip-path="url(#a)"><defs><clipPath id="b"><path d="M16 16h48v48H16V16Z"/></clipPath></defs><g clip-path="url(#b)"><path fill="#FF6B6B" d="M39.28 19.85a20.08 20.08 0 0 0-12.92 5.31l9.38 9.38c2.93-3.34 4.27-8.31 3.54-14.69Zm1.7.01c.72 6.68-.73 12.15-4.05 15.88L40 38.8l13.64-13.65a20.08 20.08 0 0 0-12.66-5.3Zm-15.82 6.5a20.08 20.08 0 0 0-5.3 12.92c6.37.73 11.34-.61 14.68-3.54l-9.38-9.38Zm29.68 0L41.19 40l3.07 3.07c3.17-2.83 7.6-4.3 12.95-4.23.95 0 1.93.07 2.93.18a20.08 20.08 0 0 0-5.3-12.66Zm-19.1 10.57c-3.73 3.32-9.2 4.77-15.88 4.05a20.08 20.08 0 0 0 5.3 12.66L38.81 40l-3.07-3.07Zm21.1 3.59c-4.81 0-8.65 1.34-11.38 3.74l9.38 9.38a20.08 20.08 0 0 0 5.3-12.92c-1.14-.14-2.25-.2-3.3-.2ZM40 41.19 26.36 54.84c3.6 3.3 8.1 5.08 12.66 5.3-.72-6.68.73-12.15 4.05-15.88L40 41.2Zm4.26 4.27c-2.93 3.34-4.27 8.31-3.54 14.69a20.08 20.08 0 0 0 12.92-5.31l-9.38-9.38Z"/></g></g></svg>