<?xml version="1.0" encoding="utf-8" ?>
<svg xmlns="http://www.w3.org/2000/svg" xmlns:xlink="http://www.w3.org/1999/xlink" width="80" height="80" viewBox="0 0 80 80">
	<path transform="matrix(1 0 0 1 0 0)" d="M24 0C10.7452 0 0 10.7452 0 24L0 56C0 69.2548 10.7452 80 24 80L56 80C69.2548 80 80 69.2548 80 56L80 24C80 10.7452 69.2548 0 56 0L24 0Z" fill-rule="nonzero" fill="rgb(255, 107, 107)" fill-opacity="0.125"/>
	<defs>
		<clipPath id="clipPath9565183160">
			<path transform="matrix(1 0 0 1 16 16)" d="M0 0L48 0L48 48L0 48L0 0Z" fill-rule="nonzero"/>
		</clipPath>
	</defs>
	<g clip-path="url(#clipPath9565183160)">
		<defs>
			<clipPath id="clipPath4877285554">
				<path transform="matrix(1 0 0 1 16 16)" d="M0 0L48 0L48 48L0 48L0 0Z" fill-rule="nonzero"/>
			</clipPath>
		</defs>
		<g clip-path="url(#clipPath4877285554)">
			<path transform="matrix(1 0 0 1 19.8526 19.8526)" d="M19.4321 0C14.7781 0.164438 10.1707 1.935 6.50494 5.3115L15.8846 14.6912C18.8174 11.3504 20.1587 6.37688 19.4321 0ZM21.1314 0.0100311C21.8483 6.6855 20.4008 12.1563 17.0793 15.8861L20.1474 18.954L33.7899 5.3115C30.1946 1.99987 25.6939 0.232125 21.1314 0.0100311ZM5.3115 6.50494C1.93491 10.1707 0.164437 14.7781 0 19.4321C6.37687 20.1587 11.3503 18.8174 14.6913 15.8846L5.3115 6.50494ZM34.9834 6.50494L21.3409 20.1474L24.4074 23.214C27.5776 20.391 32.0059 18.9221 37.3621 18.9849C38.3078 18.996 39.283 19.0555 40.2848 19.1631C40.0627 14.6007 38.2948 10.1001 34.9834 6.50494ZM15.886 17.0792C12.1562 20.4008 6.68541 21.8483 0.0100315 21.1313C0.232219 25.6938 1.99997 30.1946 5.31159 33.7899L18.954 20.1474L15.886 17.0792ZM36.98 20.667C32.1753 20.6709 28.3416 22.0067 25.6036 24.4103L34.9833 33.7899C38.3599 30.1241 40.1303 25.5168 40.2948 20.8628C39.144 20.7315 38.0378 20.6663 36.98 20.667ZM20.1474 21.3409L6.50494 34.9834C10.1003 38.295 14.601 40.0627 19.1634 40.2849C18.4466 33.6095 19.894 28.1387 23.2156 24.4088L20.1474 21.3409ZM24.4103 25.6037C21.4775 28.9445 20.1362 33.918 20.8628 40.2949C25.5168 40.1304 30.1241 38.3599 33.7899 34.9834L24.4103 25.6037Z" fill-rule="nonzero" fill="rgb(255, 107, 107)"/>
		</g>
	</g>
</svg>
