<?xml version="1.0" encoding="utf-8" ?>
<svg xmlns="http://www.w3.org/2000/svg" xmlns:xlink="http://www.w3.org/1999/xlink" width="80" height="80" viewBox="0 0 80 80">
	<path transform="matrix(1 0 0 1 0 0)" d="M24 0C10.7452 0 0 10.7452 0 24L0 56C0 69.2548 10.7452 80 24 80L56 80C69.2548 80 80 69.2548 80 56L80 24C80 10.7452 69.2548 0 56 0L24 0Z" fill-rule="nonzero" fill="rgb(142, 45, 226)" fill-opacity="0.125"/>
	<defs>
		<clipPath id="clipPath3818365657">
			<path transform="matrix(1 0 0 1 16 20.8)" d="M0 0L48 0L48 38.4L0 38.4L0 0Z" fill-rule="nonzero"/>
		</clipPath>
	</defs>
	<g clip-path="url(#clipPath3818365657)">
		<defs>
			<clipPath id="clipPath3809712730">
				<path transform="matrix(1 0 0 1 16 20.8)" d="M0 0L48 0L48 38.4L0 38.4L0 0Z" fill-rule="nonzero"/>
			</clipPath>
		</defs>
		<g clip-path="url(#clipPath3809712730)">
			<path transform="matrix(1 0 0 1 15.9091 30.4)" d="M36.0962 0L12.0909 0C7.80178 -0.000489807 4.47002 1.42806 2.09565 4.28564C-0.278732 7.14323 -0.635473 10.1538 1.02542 13.3174C2.68632 16.481 5.62319 18.385 9.83605 19.0293C14.0489 19.6735 17.6565 18.7704 20.6589 16.32L27.5229 16.32C30.5249 18.7701 34.1321 19.6733 38.3445 19.0295C42.5569 18.3856 45.4939 16.4823 47.1554 13.3194C48.8169 10.1565 48.4613 7.1461 46.0884 4.28827C43.7155 1.43043 40.3848 0.00101074 36.0962 0ZM18.6909 10.32C18.6909 10.5188 18.6031 10.6885 18.4273 10.8291C18.2516 10.9697 18.0394 11.04 17.7909 11.04L13.8909 11.04L13.8909 14.16C13.8909 14.3588 13.8031 14.5285 13.6273 14.6691C13.4516 14.8097 13.2394 14.88 12.9909 14.88L11.1909 14.88C10.9424 14.88 10.7303 14.8097 10.5545 14.6691C10.3788 14.5285 10.2909 14.3588 10.2909 14.16L10.2909 11.04L6.39092 11.04C6.14239 11.04 5.93026 10.9697 5.75452 10.8291C5.57879 10.6885 5.49092 10.5188 5.49092 10.32L5.49092 8.88C5.49092 8.68118 5.57879 8.51147 5.75453 8.37088C5.93026 8.2303 6.14239 8.16 6.39092 8.16L10.2909 8.16L10.2909 5.04C10.2909 4.84118 10.3788 4.67147 10.5545 4.53088C10.7303 4.39029 10.9424 4.32 11.1909 4.32L12.9909 4.32C13.2394 4.32 13.4516 4.39029 13.6273 4.53088C13.8031 4.67147 13.8909 4.84118 13.8909 5.04L13.8909 8.16L17.7909 8.16C18.0394 8.16 18.2516 8.23029 18.4273 8.37088C18.6031 8.51147 18.6909 8.68118 18.6909 8.88L18.6909 10.32ZM34.8909 14.88C34.0625 14.88 33.3554 14.6457 32.7696 14.1771C32.1838 13.7084 31.8909 13.1427 31.8909 12.48C31.8909 11.8173 32.1838 11.2516 32.7696 10.7829C33.3554 10.3143 34.0625 10.08 34.8909 10.08C35.7193 10.08 36.4265 10.3143 37.0122 10.7829C37.598 11.2516 37.8909 11.8173 37.8909 12.48C37.8909 13.1427 37.598 13.7084 37.0122 14.1771C36.4265 14.6457 35.7193 14.88 34.8909 14.88ZM39.6909 9.12C38.8625 9.12 38.1554 8.88568 37.5696 8.41706C36.9838 7.94843 36.6909 7.38274 36.6909 6.72C36.6909 6.05726 36.9838 5.49157 37.5696 5.02294C38.1554 4.55431 38.8625 4.32 39.6909 4.32C40.5193 4.32 41.2265 4.55431 41.8122 5.02294C42.398 5.49157 42.6909 6.05726 42.6909 6.72C42.6909 7.38274 42.398 7.94843 41.8122 8.41706C41.2265 8.88568 40.5193 9.12 39.6909 9.12Z" fill-rule="nonzero" fill="rgb(142, 45, 226)"/>
		</g>
	</g>
</svg>
