<svg xmlns="http://www.w3.org/2000/svg" width="80" height="80"><path fill="#8E2DE2" fill-opacity=".13" d="M24 0A24 24 0 0 0 0 24v32a24 24 0 0 0 24 24h32a24 24 0 0 0 24-24V24A24 24 0 0 0 56 0H24Z"/><defs><clipPath id="a"><path d="M16 20.8h48v38.4H16V20.8Z"/></clipPath></defs><g clip-path="url(#a)"><defs><clipPath id="b"><path d="M16 20.8h48v38.4H16V20.8Z"/></clipPath></defs><g clip-path="url(#b)"><path fill="#8E2DE2" d="M52 30.4H28c-4.29 0-7.62 1.43-10 4.29-2.37 2.85-2.73 5.86-1.07 9.03 1.67 3.16 4.6 5.06 8.82 5.7 4.2.65 7.82-.25 10.82-2.7h6.86c3 2.45 6.61 3.35 10.82 2.7 4.22-.63 7.15-2.54 8.81-5.7 1.67-3.16 1.31-6.17-1.06-9.03-2.38-2.86-5.7-4.29-10-4.29ZM34.6 40.72c0 .2-.09.37-.26.5a.99.99 0 0 1-.64.22h-3.9v3.12c0 .2-.09.37-.26.5a.99.99 0 0 1-.64.22h-1.8a.99.99 0 0 1-.64-.21.63.63 0 0 1-.26-.51v-3.12h-3.9a.99.99 0 0 1-.64-.21.63.63 0 0 1-.26-.51v-1.44c0-.2.09-.37.26-.5a.99.99 0 0 1 .64-.22h3.9v-3.12c0-.2.09-.37.26-.5a.99.99 0 0 1 .64-.22h1.8c.25 0 .46.07.64.21.17.14.26.31.26.51v3.12h3.9c.25 0 .46.07.64.21.17.14.26.31.26.51v1.44Zm16.2 4.56c-.83 0-1.54-.23-2.12-.7a2.1 2.1 0 0 1-.88-1.7c0-.66.3-1.23.88-1.7.58-.47 1.3-.7 2.12-.7.83 0 1.54.23 2.12.7.59.47.88 1.04.88 1.7 0 .66-.3 1.23-.88 1.7-.58.47-1.3.7-2.12.7Zm4.8-5.76c-.83 0-1.54-.23-2.12-.7a2.1 2.1 0 0 1-.88-1.7c0-.66.3-1.23.88-1.7.58-.47 1.3-.7 2.12-.7.83 0 1.54.23 2.12.7.59.47.88 1.04.88 1.7 0 .66-.3 1.23-.88 1.7-.58.47-1.3.7-2.12.7Z"/></g></g></svg>