<svg xmlns="http://www.w3.org/2000/svg" width="80" height="80"><path fill="#FF90B3" fill-opacity=".13" d="M24 0A24 24 0 0 0 0 24v32a24 24 0 0 0 24 24h32a24 24 0 0 0 24-24V24A24 24 0 0 0 56 0H24Z"/><defs><clipPath id="a"><path d="M16 16h48v48H16V16Z"/></clipPath></defs><g clip-path="url(#a)"><defs><clipPath id="b"><path d="M16 16h48v48H16V16Z"/></clipPath></defs><g clip-path="url(#b)"><path fill="#FF90B3" d="M38.2 20.1c-1.88 1.27-3.46 2.35-4.24 3.24-.44.5-.64.92-.66 1.3-.03.38.1.8.55 1.4l.11.14a28.5 28.5 0 0 1 5.9-.43c2.9.07 5.66.5 7.97 1.2a6.66 6.66 0 0 0-.43-.73c-.55-.78-1.12-1.27-2.86-1.17h-.09c-3.03-.21-4.53-1.18-5.27-2.42-.54-.9-.71-1.8-.97-2.52Zm1.32 7.14a21.8 21.8 0 0 0-7.69 1.17c-.99.39-1.73.86-2.17 1.33-.44.48-.56.9-.48 1.3.07.35.29.71.73 1.11 2.35-.86 5.2-1.52 8.37-1.87 4.57-.52 8.92-.3 12.34.49.72.16 1.4.36 2.03.58a2.88 2.88 0 0 0-.92-1.08c-.63-.5-1.57-1-2.72-1.45a27.75 27.75 0 0 0-9.49-1.58Zm4.04 4.22c-1.55 0-3.18.08-4.84.26-4.41.5-8.2 1.63-10.7 3a8.32 8.32 0 0 0-2.7 2.15c-.45.6-.6 1.14-.54 1.64.36-.13.74-.26 1.13-.38 3.66-1.13 8.62-1.8 14.09-1.8 5.47 0 10.43.67 14.09 1.8l.35.11c.41-.34.74-.68.99-1 .52-.73.65-1.36.47-1.94-.18-.58-.68-1.15-1.6-1.7a13.5 13.5 0 0 0-3.8-1.42 31.7 31.7 0 0 0-6.94-.72ZM40 37.67c-5.3 0-10.1.67-13.49 1.71-1.7.53-3.04 1.14-3.91 1.78-.88.64-1.26 1.25-1.26 1.84 0 .6.38 1.2 1.26 1.84l.02.01L28 42.16l5.93 3 6.08-3 5.84 3 6.15-3 5.38 2.7.02-.02c.88-.64 1.26-1.25 1.26-1.84 0-.6-.38-1.2-1.26-1.84a13.77 13.77 0 0 0-3.91-1.78c-3.4-1.04-8.2-1.7-13.49-1.7Zm12 6.17-5.3 2.58-1.46 11.67-1.48-.18 1.42-11.4L40 43.83l-5.18 2.56 1.43 11.5-1.48.2-1.45-11.57L28 43.84l-5.07 2.53 5.6 15.38h22.94l5.6-15.38L52 43.84Z"/></g></g></svg>