<?xml version="1.0" encoding="utf-8" ?>
<svg xmlns="http://www.w3.org/2000/svg" xmlns:xlink="http://www.w3.org/1999/xlink" width="80" height="80" viewBox="0 0 80 80">
	<path transform="matrix(1 0 0 1 0 0)" d="M24 0C10.7452 0 0 10.7452 0 24L0 56C0 69.2548 10.7452 80 24 80L56 80C69.2548 80 80 69.2548 80 56L80 24C80 10.7452 69.2548 0 56 0L24 0Z" fill-rule="nonzero" fill="rgb(255, 144, 179)" fill-opacity="0.125"/>
	<defs>
		<clipPath id="clipPath6232029805">
			<path transform="matrix(1 0 0 1 16 16)" d="M0 0L48 0L48 48L0 48L0 0Z" fill-rule="nonzero"/>
		</clipPath>
	</defs>
	<g clip-path="url(#clipPath6232029805)">
		<defs>
			<clipPath id="clipPath4760809428">
				<path transform="matrix(1 0 0 1 16 16)" d="M0 0L48 0L48 48L0 48L0 0Z" fill-rule="nonzero"/>
			</clipPath>
		</defs>
		<g clip-path="url(#clipPath4760809428)">
			<path transform="matrix(1 0 0 1 21.3384 20.1091)" d="M16.8667 0C14.9767 1.263 13.3988 2.33906 12.6198 3.22744C12.1776 3.73153 11.9836 4.14806 11.9583 4.52869C11.933 4.90903 12.0569 5.33812 12.5161 5.93212L12.6218 6.06881C14.352 5.74294 16.3491 5.58666 18.5125 5.63822C21.4225 5.70759 24.1786 6.141 26.4951 6.83616C26.3547 6.5715 26.2154 6.32447 26.0634 6.11016C25.5135 5.33447 24.9403 4.84547 23.2043 4.94428L23.1561 4.94709L23.1082 4.94362C20.0861 4.72734 18.5788 3.75834 17.8433 2.52562C17.2999 1.61456 17.1284 0.722343 16.8667 0ZM18.182 7.13494C15.0648 7.12238 12.3533 7.57509 10.4942 8.30306C9.50269 8.69138 8.75794 9.16088 8.32106 9.63394C7.88438 10.1071 7.76485 10.5368 7.84453 10.9389C7.91138 11.2764 8.13047 11.6407 8.56997 12.0433C10.9264 11.1811 13.7784 10.5227 16.9375 10.1664C21.5104 9.65053 25.8625 9.86438 29.2797 10.6575C29.9993 10.8244 30.6775 11.0169 31.3098 11.2363C31.1714 10.9067 30.886 10.5515 30.3913 10.1594C29.7621 9.66094 28.8232 9.15141 27.6676 8.71191C25.3567 7.83319 22.1912 7.22409 18.8107 7.14366C18.5993 7.13859 18.3897 7.13559 18.182 7.13494ZM22.2212 11.3478C20.6687 11.3431 19.0421 11.4287 17.3856 11.6155C12.9686 12.1136 9.17925 13.2376 6.67762 14.6066C5.42681 15.291 4.50234 16.0391 3.97575 16.7559C3.53559 17.355 3.37725 17.8984 3.44156 18.3998C3.80344 18.2688 4.17984 18.1429 4.57191 18.0221C8.23416 16.8953 13.1897 16.2203 18.6616 16.2203C24.1335 16.2203 29.089 16.8953 32.7513 18.0221C32.8694 18.0585 32.9861 18.0954 33.1016 18.1327C33.5113 17.7955 33.8432 17.4556 34.0881 17.1224C34.6146 16.4055 34.7392 15.7679 34.5596 15.1874C34.3801 14.6069 33.883 14.0396 32.9635 13.486C32.044 12.9323 30.7349 12.4363 29.1593 12.0706C27.1898 11.6135 24.8084 11.3553 22.2212 11.3478ZM18.6616 17.5615C13.364 17.5615 8.56941 18.2297 5.17406 19.2743C3.47625 19.7968 2.13244 20.4158 1.25812 21.0518C0.383906 21.6878 0 22.2982 0 22.8909C0 23.4837 0.383906 24.094 1.25812 24.73C1.26469 24.7347 1.27162 24.7394 1.27809 24.7441L6.66375 22.0514L12.5906 25.0523L18.6682 22.0512L24.5144 25.0523L30.6658 22.0545L36.0452 24.7442C36.0516 24.7395 36.0586 24.7348 36.0651 24.7301C36.9393 24.094 37.3232 23.4837 37.3232 22.8909C37.3232 22.2982 36.9393 21.6878 36.0651 21.0518C35.1908 20.4158 33.8469 19.7968 32.1491 19.2743C28.7537 18.2297 23.9591 17.5615 18.6616 17.5615ZM30.6574 23.7275L25.3657 26.3062L23.9058 37.9847L22.4175 37.7972L23.843 26.3939L18.655 23.7307L13.4677 26.2925L14.9058 37.7972L13.4175 37.9847L11.9719 26.4204L6.65944 23.7305L1.59488 26.2628L7.18706 41.6409L30.1361 41.6409L35.7283 26.2628L30.6574 23.7275Z" fill-rule="nonzero" fill="rgb(255, 144, 179)"/>
		</g>
	</g>
</svg>
